<mxfile host="Electron" modified="2023-06-21T08:04:07.485Z" agent="Mozilla/5.0 (Windows NT 10.0; Win64; x64) AppleWebKit/537.36 (KHTML, like Gecko) draw.io/21.2.8 Chrome/112.0.5615.165 Electron/24.2.0 Safari/537.36" etag="8PIaCyJbavwL1D6BnlPO" version="21.2.8" type="device" pages="4">
  <diagram id="M1IFy15a_C5Dco_FugpN" name="第 1 页">
    <mxGraphModel dx="1418" dy="843" grid="1" gridSize="10" guides="1" tooltips="1" connect="1" arrows="1" fold="1" page="1" pageScale="1" pageWidth="827" pageHeight="1169" math="0" shadow="0">
      <root>
        <mxCell id="0" />
        <mxCell id="1" parent="0" />
        <mxCell id="hEHe6NLSFcfrz5MBlrMq-2" value="" style="shape=waypoint;sketch=0;fillStyle=solid;size=6;pointerEvents=1;points=[];fillColor=none;resizable=0;rotatable=0;perimeter=centerPerimeter;snapToPoint=1;strokeWidth=5;strokeColor=#FF3333;" parent="1" vertex="1">
          <mxGeometry x="189" y="470" width="20" height="20" as="geometry" />
        </mxCell>
        <mxCell id="EYgy0r7HKBDJHvFflt6x-1" value="" style="shape=waypoint;sketch=0;fillStyle=solid;size=6;pointerEvents=1;points=[];fillColor=none;resizable=0;rotatable=0;perimeter=centerPerimeter;snapToPoint=1;strokeWidth=5;strokeColor=#FF3333;" parent="1" vertex="1">
          <mxGeometry x="270" y="510" width="20" height="20" as="geometry" />
        </mxCell>
        <mxCell id="EYgy0r7HKBDJHvFflt6x-2" value="" style="shape=waypoint;sketch=0;fillStyle=solid;size=6;pointerEvents=1;points=[];fillColor=none;resizable=0;rotatable=0;perimeter=centerPerimeter;snapToPoint=1;strokeWidth=5;strokeColor=#FF3333;" parent="1" vertex="1">
          <mxGeometry x="270" y="629" width="20" height="20" as="geometry" />
        </mxCell>
        <mxCell id="EYgy0r7HKBDJHvFflt6x-3" value="" style="endArrow=none;html=1;rounded=0;exitX=0.3;exitY=0.45;exitDx=0;exitDy=0;exitPerimeter=0;strokeWidth=5;strokeColor=#999999;" parent="1" source="hEHe6NLSFcfrz5MBlrMq-2" target="EYgy0r7HKBDJHvFflt6x-4" edge="1">
          <mxGeometry width="50" height="50" relative="1" as="geometry">
            <mxPoint x="290" y="440" as="sourcePoint" />
            <mxPoint x="340" y="390" as="targetPoint" />
          </mxGeometry>
        </mxCell>
        <mxCell id="EYgy0r7HKBDJHvFflt6x-4" value="" style="shape=waypoint;sketch=0;fillStyle=solid;size=6;pointerEvents=1;points=[];fillColor=none;resizable=0;rotatable=0;perimeter=centerPerimeter;snapToPoint=1;strokeWidth=5;strokeColor=#FF3333;" parent="1" vertex="1">
          <mxGeometry x="189" y="350" width="20" height="20" as="geometry" />
        </mxCell>
        <mxCell id="EYgy0r7HKBDJHvFflt6x-6" value="" style="endArrow=none;html=1;rounded=0;strokeWidth=5;strokeColor=#999999;entryX=0.75;entryY=0.7;entryDx=0;entryDy=0;entryPerimeter=0;" parent="1" target="EYgy0r7HKBDJHvFflt6x-1" edge="1">
          <mxGeometry width="50" height="50" relative="1" as="geometry">
            <mxPoint x="280" y="640" as="sourcePoint" />
            <mxPoint x="249" y="330" as="targetPoint" />
          </mxGeometry>
        </mxCell>
        <mxCell id="EYgy0r7HKBDJHvFflt6x-7" value="" style="shape=waypoint;sketch=0;fillStyle=solid;size=6;pointerEvents=1;points=[];fillColor=none;resizable=0;rotatable=0;perimeter=centerPerimeter;snapToPoint=1;strokeWidth=5;strokeColor=#FF3333;" parent="1" vertex="1">
          <mxGeometry x="310" y="470" width="20" height="20" as="geometry" />
        </mxCell>
        <mxCell id="EYgy0r7HKBDJHvFflt6x-8" value="" style="endArrow=none;html=1;rounded=0;exitX=0.3;exitY=0.4;exitDx=0;exitDy=0;exitPerimeter=0;strokeWidth=5;strokeColor=#999999;" parent="1" source="EYgy0r7HKBDJHvFflt6x-7" target="hEHe6NLSFcfrz5MBlrMq-2" edge="1">
          <mxGeometry width="50" height="50" relative="1" as="geometry">
            <mxPoint x="209" y="490" as="sourcePoint" />
            <mxPoint x="209" y="330" as="targetPoint" />
          </mxGeometry>
        </mxCell>
        <mxCell id="EYgy0r7HKBDJHvFflt6x-9" value="" style="endArrow=none;html=1;rounded=0;strokeWidth=5;strokeColor=#999999;entryX=0.15;entryY=0.3;entryDx=0;entryDy=0;entryPerimeter=0;" parent="1" source="EYgy0r7HKBDJHvFflt6x-7" target="EYgy0r7HKBDJHvFflt6x-1" edge="1">
          <mxGeometry width="50" height="50" relative="1" as="geometry">
            <mxPoint x="290" y="490" as="sourcePoint" />
            <mxPoint x="209" y="490" as="targetPoint" />
          </mxGeometry>
        </mxCell>
        <mxCell id="EYgy0r7HKBDJHvFflt6x-10" value="&lt;font color=&quot;#ff3333&quot;&gt;&lt;b&gt;O4&lt;/b&gt;&lt;/font&gt;" style="text;strokeColor=none;align=center;fillColor=none;html=1;verticalAlign=middle;whiteSpace=wrap;rounded=0;" parent="1" vertex="1">
          <mxGeometry x="150" y="465" width="60" height="30" as="geometry" />
        </mxCell>
        <mxCell id="EYgy0r7HKBDJHvFflt6x-11" value="&lt;font color=&quot;#ff3333&quot;&gt;&lt;b&gt;O5&lt;/b&gt;&lt;/font&gt;" style="text;strokeColor=none;align=center;fillColor=none;html=1;verticalAlign=middle;whiteSpace=wrap;rounded=0;" parent="1" vertex="1">
          <mxGeometry x="229" y="507" width="60" height="30" as="geometry" />
        </mxCell>
        <mxCell id="EYgy0r7HKBDJHvFflt6x-12" value="&lt;font color=&quot;#ff3333&quot;&gt;&lt;b&gt;TCP&lt;/b&gt;&lt;/font&gt;" style="text;strokeColor=none;align=center;fillColor=none;html=1;verticalAlign=middle;whiteSpace=wrap;rounded=0;" parent="1" vertex="1">
          <mxGeometry x="210" y="624" width="60" height="30" as="geometry" />
        </mxCell>
        <mxCell id="EYgy0r7HKBDJHvFflt6x-13" value="" style="endArrow=classic;html=1;rounded=0;strokeColor=#3399FF;strokeWidth=3;" parent="1" edge="1">
          <mxGeometry width="50" height="50" relative="1" as="geometry">
            <mxPoint x="199" y="480" as="sourcePoint" />
            <mxPoint x="199" y="400" as="targetPoint" />
          </mxGeometry>
        </mxCell>
        <mxCell id="EYgy0r7HKBDJHvFflt6x-14" value="" style="endArrow=classic;html=1;rounded=0;strokeColor=#3399FF;strokeWidth=3;" parent="1" edge="1">
          <mxGeometry width="50" height="50" relative="1" as="geometry">
            <mxPoint x="280" y="520" as="sourcePoint" />
            <mxPoint x="220" y="580" as="targetPoint" />
          </mxGeometry>
        </mxCell>
        <mxCell id="EYgy0r7HKBDJHvFflt6x-15" value="" style="endArrow=classic;html=1;rounded=0;strokeColor=#3399FF;strokeWidth=3;exitX=0.95;exitY=0.1;exitDx=0;exitDy=0;exitPerimeter=0;" parent="1" source="EYgy0r7HKBDJHvFflt6x-2" edge="1">
          <mxGeometry width="50" height="50" relative="1" as="geometry">
            <mxPoint x="350" y="599" as="sourcePoint" />
            <mxPoint x="280" y="719" as="targetPoint" />
          </mxGeometry>
        </mxCell>
        <mxCell id="EYgy0r7HKBDJHvFflt6x-16" value="" style="endArrow=classic;html=1;rounded=0;strokeWidth=3;strokeColor=#00CC00;" parent="1" edge="1">
          <mxGeometry width="50" height="50" relative="1" as="geometry">
            <mxPoint x="200" y="480" as="sourcePoint" />
            <mxPoint x="280" y="480" as="targetPoint" />
          </mxGeometry>
        </mxCell>
        <mxCell id="EYgy0r7HKBDJHvFflt6x-17" value="" style="endArrow=classic;html=1;rounded=0;strokeWidth=3;strokeColor=#00CC00;exitX=0.2;exitY=0.55;exitDx=0;exitDy=0;exitPerimeter=0;" parent="1" source="EYgy0r7HKBDJHvFflt6x-1" edge="1">
          <mxGeometry width="50" height="50" relative="1" as="geometry">
            <mxPoint x="210" y="490" as="sourcePoint" />
            <mxPoint x="360" y="520" as="targetPoint" />
          </mxGeometry>
        </mxCell>
        <mxCell id="EYgy0r7HKBDJHvFflt6x-18" value="" style="endArrow=classic;html=1;rounded=0;strokeWidth=3;strokeColor=#00CC00;exitX=0.95;exitY=0.6;exitDx=0;exitDy=0;exitPerimeter=0;" parent="1" source="EYgy0r7HKBDJHvFflt6x-2" edge="1">
          <mxGeometry width="50" height="50" relative="1" as="geometry">
            <mxPoint x="290" y="529" as="sourcePoint" />
            <mxPoint x="360" y="639" as="targetPoint" />
          </mxGeometry>
        </mxCell>
        <mxCell id="EYgy0r7HKBDJHvFflt6x-19" value="&lt;b style=&quot;&quot;&gt;&lt;font color=&quot;#3399ff&quot;&gt;Z4&lt;/font&gt;&lt;/b&gt;" style="text;strokeColor=none;align=center;fillColor=none;html=1;verticalAlign=middle;whiteSpace=wrap;rounded=0;" parent="1" vertex="1">
          <mxGeometry x="150" y="397" width="60" height="30" as="geometry" />
        </mxCell>
        <mxCell id="EYgy0r7HKBDJHvFflt6x-20" value="&lt;b style=&quot;&quot;&gt;&lt;font color=&quot;#3399ff&quot;&gt;Z5&lt;/font&gt;&lt;/b&gt;" style="text;strokeColor=none;align=center;fillColor=none;html=1;verticalAlign=middle;whiteSpace=wrap;rounded=0;" parent="1" vertex="1">
          <mxGeometry x="180" y="560" width="60" height="30" as="geometry" />
        </mxCell>
        <mxCell id="EYgy0r7HKBDJHvFflt6x-21" value="&lt;b style=&quot;&quot;&gt;&lt;font color=&quot;#3399ff&quot;&gt;Z6&lt;/font&gt;&lt;/b&gt;" style="text;strokeColor=none;align=center;fillColor=none;html=1;verticalAlign=middle;whiteSpace=wrap;rounded=0;" parent="1" vertex="1">
          <mxGeometry x="230" y="690" width="60" height="30" as="geometry" />
        </mxCell>
        <mxCell id="EYgy0r7HKBDJHvFflt6x-22" value="&lt;font color=&quot;#00cc00&quot;&gt;X4&lt;/font&gt;" style="text;strokeColor=none;align=center;fillColor=none;html=1;verticalAlign=middle;whiteSpace=wrap;rounded=0;" parent="1" vertex="1">
          <mxGeometry x="230" y="480" width="60" height="30" as="geometry" />
        </mxCell>
        <mxCell id="EYgy0r7HKBDJHvFflt6x-23" value="&lt;font color=&quot;#00cc00&quot;&gt;X5&lt;/font&gt;" style="text;strokeColor=none;align=center;fillColor=none;html=1;verticalAlign=middle;whiteSpace=wrap;rounded=0;" parent="1" vertex="1">
          <mxGeometry x="320" y="522" width="60" height="30" as="geometry" />
        </mxCell>
        <mxCell id="EYgy0r7HKBDJHvFflt6x-24" value="&lt;font color=&quot;#00cc00&quot;&gt;X6&lt;/font&gt;" style="text;strokeColor=none;align=center;fillColor=none;html=1;verticalAlign=middle;whiteSpace=wrap;rounded=0;" parent="1" vertex="1">
          <mxGeometry x="320" y="643" width="60" height="30" as="geometry" />
        </mxCell>
        <mxCell id="EYgy0r7HKBDJHvFflt6x-26" value="&lt;b style=&quot;&quot;&gt;&lt;font&gt;a5&lt;/font&gt;&lt;/b&gt;" style="text;strokeColor=none;align=center;fillColor=none;html=1;verticalAlign=middle;whiteSpace=wrap;rounded=0;fontColor=#FF9933;" parent="1" vertex="1">
          <mxGeometry x="230" y="435" width="60" height="30" as="geometry" />
        </mxCell>
        <mxCell id="EYgy0r7HKBDJHvFflt6x-27" value="" style="endArrow=classic;html=1;rounded=0;strokeColor=#3399FF;strokeWidth=3;" parent="1" edge="1">
          <mxGeometry width="50" height="50" relative="1" as="geometry">
            <mxPoint x="200" y="481" as="sourcePoint" />
            <mxPoint x="200" y="381" as="targetPoint" />
          </mxGeometry>
        </mxCell>
        <mxCell id="EYgy0r7HKBDJHvFflt6x-28" value="" style="endArrow=classic;html=1;rounded=0;strokeWidth=3;strokeColor=#00CC00;exitX=0.75;exitY=1.05;exitDx=0;exitDy=0;exitPerimeter=0;" parent="1" source="hEHe6NLSFcfrz5MBlrMq-2" edge="1">
          <mxGeometry width="50" height="50" relative="1" as="geometry">
            <mxPoint x="200" y="361" as="sourcePoint" />
            <mxPoint x="300" y="481" as="targetPoint" />
          </mxGeometry>
        </mxCell>
        <mxCell id="EYgy0r7HKBDJHvFflt6x-29" value="&lt;font color=&quot;#00cc00&quot;&gt;X&lt;/font&gt;" style="text;strokeColor=none;align=center;fillColor=none;html=1;verticalAlign=middle;whiteSpace=wrap;rounded=0;" parent="1" vertex="1">
          <mxGeometry x="256" y="480" width="60" height="30" as="geometry" />
        </mxCell>
        <mxCell id="EYgy0r7HKBDJHvFflt6x-30" value="&lt;b style=&quot;&quot;&gt;&lt;font color=&quot;#3399ff&quot;&gt;Z&lt;/font&gt;&lt;/b&gt;" style="text;strokeColor=none;align=center;fillColor=none;html=1;verticalAlign=middle;whiteSpace=wrap;rounded=0;" parent="1" vertex="1">
          <mxGeometry x="150" y="376" width="60" height="30" as="geometry" />
        </mxCell>
        <mxCell id="EYgy0r7HKBDJHvFflt6x-25" value="" style="shape=crossbar;whiteSpace=wrap;html=1;rounded=1;strokeWidth=3;strokeColor=#FF9933;" parent="1" vertex="1">
          <mxGeometry x="200" y="425" width="120" height="20" as="geometry" />
        </mxCell>
        <mxCell id="EYgy0r7HKBDJHvFflt6x-32" value="" style="shape=crossbar;whiteSpace=wrap;html=1;rounded=1;strokeWidth=3;strokeColor=#FF9933;rotation=-45;" parent="1" vertex="1">
          <mxGeometry x="390" y="490" width="60" height="20" as="geometry" />
        </mxCell>
        <mxCell id="EYgy0r7HKBDJHvFflt6x-34" value="&lt;b style=&quot;&quot;&gt;&lt;font&gt;d5&lt;/font&gt;&lt;/b&gt;" style="text;strokeColor=none;align=center;fillColor=none;html=1;verticalAlign=middle;whiteSpace=wrap;rounded=0;fontColor=#FF9933;" parent="1" vertex="1">
          <mxGeometry x="380" y="480" width="60" height="30" as="geometry" />
        </mxCell>
        <mxCell id="EYgy0r7HKBDJHvFflt6x-36" value="" style="shape=crossbar;whiteSpace=wrap;html=1;rounded=1;direction=south;strokeColor=#FF9933;strokeWidth=3;" parent="1" vertex="1">
          <mxGeometry x="390" y="521" width="20" height="120" as="geometry" />
        </mxCell>
        <mxCell id="EYgy0r7HKBDJHvFflt6x-37" value="&lt;b style=&quot;&quot;&gt;&lt;font&gt;d6&lt;/font&gt;&lt;/b&gt;" style="text;strokeColor=none;align=center;fillColor=none;html=1;verticalAlign=middle;whiteSpace=wrap;rounded=0;fontColor=#FF9933;" parent="1" vertex="1">
          <mxGeometry x="360" y="566" width="60" height="30" as="geometry" />
        </mxCell>
      </root>
    </mxGraphModel>
  </diagram>
  <diagram id="VUSO3wjROMlYx12PADpt" name="第 2 页">
    <mxGraphModel dx="1418" dy="843" grid="1" gridSize="10" guides="1" tooltips="1" connect="1" arrows="1" fold="1" page="1" pageScale="1" pageWidth="827" pageHeight="1169" math="0" shadow="0">
      <root>
        <mxCell id="0" />
        <mxCell id="1" parent="0" />
        <mxCell id="R5iJuWBh18saaudUanpF-28" value="" style="shape=ext;double=1;rounded=0;whiteSpace=wrap;html=1;" parent="1" vertex="1">
          <mxGeometry x="120" y="600" width="240" height="200" as="geometry" />
        </mxCell>
        <mxCell id="QJzM6MsE7K0sND9KvasT-1" value="" style="shape=image;aspect=fixed;image=data:image/jpg,/9j/4AAQSkZJRgABAQAAAQABAAD/2wBDAAYEBQYFBAYGBQYHBwYIChAKCgkJChQODwwQFxQYGBcUFhYaHSUfGhsjHBYWICwgIyYnKSopGR8tMC0oMCUoKSj/2wBDAQcHBwoIChMKChMoGhYaKCgoKCgoKCgoKCgoKCgoKCgoKCgoKCgoKCgoKCgoKCgoKCgoKCgoKCgoKCgoKCgoKCj/wAARCAFYA1kDASIAAhEBAxEB/8QAHwAAAQUBAQEBAQEAAAAAAAAAAAECAwQFBgcICQoL/8QAtRAAAgEDAwIEAwUFBAQAAAF9AQIDAAQRBRIhMUEGE1FhByJxFDKBkaEII0KxwRVS0fAkM2JyggkKFhcYGRolJicoKSo0NTY3ODk6Q0RFRkdISUpTVFVWV1hZWmNkZWZnaGlqc3R1dnd4eXqDhIWGh4iJipKTlJWWl5iZmqKjpKWmp6ipqrKztLW2t7i5usLDxMXGx8jJytLT1NXW19jZ2uHi4+Tl5ufo6erx8vP09fb3+Pn6/8QAHwEAAwEBAQEBAQEBAQAAAAAAAAECAwQFBgcICQoL/8QAtREAAgECBAQDBAcFBAQAAQJ3AAECAxEEBSExBhJBUQdhcRMiMoEIFEKRobHBCSMzUvAVYnLRChYkNOEl8RcYGRomJygpKjU2Nzg5OkNERUZHSElKU1RVVldYWVpjZGVmZ2hpanN0dXZ3eHl6goOEhYaHiImKkpOUlZaXmJmaoqOkpaanqKmqsrO0tba3uLm6wsPExcbHyMnK0tPU1dbX2Nna4uPk5ebn6Onq8vP09fb3+Pn6/9oADAMBAAIRAxEAPwD6poorPN9IHxtX8jQBoVnxaNpkUGoQJYWog1CR5buMxgrcOyhWLjo2QADnqBTX1CRf4V/I0v22T+6n5GgA1fRNL1jSX0vVLC2utOZQpt5YwUwOmB2x2x0pkugaXJoK6KLRItKVFiFtAxiUIuML8hHy8YI6EcHINO+3yf3U/I0fbpP7qfkf8aAGeHfDujeG7RrXQNLs9OgY5ZbaJU3n1Yjkn3NV/Evg/wAOeJ9h8Q6Jp+oug2pJcQKzqM5wGxkD2Bq4t7N/dT8j/jTvtkvon5GgDNvvBPhe/isIr7w/pVzFYReTaxzWqOsSYA2qpGMcDioP+FeeCv8AoUPDn/gsg/8Aia2Ptk391PyP+NN+3S/3U/I0AUtN8GeF9Lvor3TPDeiWd5Fny57ewijkTIIOGVQRkEj8ar+IfAPhXxHqD32u6HZ3928aRGWddzBV3YA9B87dMZ4znAxqNfTf3Y/yNO+2zbc7Uz9DQBz0fwt8CRoyr4S0QqwCndaIeB9RW1oPhjQ/D+mSadouk2VlYyEmSGGIKshIwS394445zwMVJ9vn/ux/kf8AGnDUJP4kQUAaVFZJ1CfccBMfSk/tK4/uR/kf8aANeuZ8WeBtA8VT2E2r2Mby2d5Heq6KFaR0BCq5xll56ewrQ/tCf0j/ACP+NH9ozf3Y/wAj/jQBqgcYOKXHFZovpfRPyNNfUZB91UP4f/XoA1Kz/EGlLrej3OnyXd9ZLOu37RYzmCaPnOVccg1D/aE5+6sf5H/Gnf2hN/dj/X/GgCv4Q8L6d4V0+W1003MrTyme4ubudppp5CAN7u3JOAB9BV3T9G03Tru8urGxt4Lq8cyXEyIA8rHuzdT/AE7VF/aE392P8jTRqUvdY/yNAD7bw/o9rrdzrFtpdlFqtyoSa7SFRLIB2LYye35D0FWr7T7O/wDI+3Wlvc+RKJofOjV/LkHR1yOGGTgjmqf9pSn7qx/kacdQcfwp+RoAnn0vT7jUbfULixtZb+2BWC5eFWliB6hWIyoPfBqG70HSbzV7XVbvTbObUrQFYLqSFWkiB67WIyP/AK59ab/aEp/hX8jSf2lL/dT8jQBevLW3vbWW2vYIri2lUpJFKodHU9Qyngj2NFna29jaxW1lBFb20ShI4olCIijoFUcAewqmL+QjO1Py/wDr0G/kAztT8v8A69AF9YkR3eNEDvyxA5Y+5+lVtW0yy1fTp7DVLWG7s512yQzKGVh7g1Xe/lAyFjI57H/Gm/2lNjIEf5H/ABoA0bO1gsrWK2tIYoLeJQkcUShURRwAoHAA9KS/s7fULK4s72FJ7W4jaKWKQZV0YYKkdwQazf7TuP7sX5H/ABpv9qzjqsX5H/GgCNfBnhhWLDw7o+4osRY2UZJRQAqk7eQAAAO2BV230LSbaZZrbTLGGZOVeO3RWH0IFVP7XuP7kX5H/GmnWJ/+ecWfof8AGgDRm0nT57+G+msbWS9hOY7h4VMiHBHysRkcEjj1NWZreCfPnwxyAo0Z3qDlWxuXnscDI74rE/tq6/uQ/kf8aP7auv7kP5H/ABoA09H0rTtFsEstHsbWws0JKwW0SxoCTknaAByaraF4a0Pw/wCcdC0jT9OafmVrW3SNpOSRuIGTgk4z0zVX+2rr+5D+R/xo/tm5/uwfkf8AGgDXnsLO4uIp7i1t5Z4v9XI8YZk+hIyKlMETTJM0aNMgIWQqNyg4yAe2cD8qw/7auv7kP5H/ABo/tq6/uQ/kf8aANWPTLCMyGOytUMkYhcrEo3RgYCHjlQCeOnNF1plhd/ZftVlaz/ZHElv5kSt5LAYDJkfKcEjIrJXWrk/wQ/kf8ab/AG5c/wDPOH8j/jQB0fAHHAFR+TEZ/P8ALTz9uzzNo3bc5xn09qwv7bnx92H8j/jTf7duf+ecP5H/ABoA2J9Msbi/tb64tLeW8tQwgndAXiDABtpPIyAAcdqdfWFpqESR39rBcxpIsqpNGHCupyrAHoQeQe1Yv9uXP/POH8j/AI0/+27j/nlF+R/xoA38cccVWh0+yhvp72G0t47y4CrNOsaiSQKMAM2MnHbNZf8AbFz/AM84vxB/xo/tibbnbF+R/wAaANWLT7KLUJr+K0t0vp0WOW4WJRJIq/dVmxkgZOAelR2Wk6dYXVzc2On2ltc3Tl55YYVR5WPUuQMsfc1n/wBsT7fuRZ+h/wAacuqzcbkj/I/40AbdQ29pb27zPbwQxPM2+RkQKXb1YjqfrWd/acv92P8AWnf2jNt+VY/yP+NAGlPDFPHsnjSRMhtrqCMg5BwfQgGn1krqE/8AEI/yP+NSC9nP8Mf5H/GgDSpojQStIEUSMApbHJAzgE+gyfzNZ/2yb+6n5H/GpRdyd1WgC7RVH7XIf4VH4U77U/on5UAJo2lWOiabDp+k2kVpZQ58uGJdqrkljge5JP1NXazzfOGI2rx7Un29/wC6vvQBo0Vn/bJf7q077XL/AHVoAt3EMdxBJDOgeKRSjqejKRgisnwz4W0PwtbzQ+HtKtNPjmYPKIIwpcjpk9Tjt6VO99Krhdqfkad9rl9I/wBf8aANDFFUGu5V7J+R/wAaat5Keyfr/jQBo1HJBDLJG8sUbvGSUZlBKEjBIPbgkVS+2S+kefof8aBfS90T8jQBo0VnNeyf3FpFvZP4lSgDSoqh9tk/urSfbX7haAL7qroyuoZWGCCMgilqj9sk/uLQLxz2X8qAL2KKqfaJPRfypDcv6L+VAFyiqazynqq/kaf57d9v5UAWaKr+cx6YP4UGdvQZ+lAFiiq3nSZ6L+VAmk54UUAWQMdKKrNOw5+Wmi5Y/wB2gC3RVcTMR/DTHuWX+7mgC33ozVMXT45C0C6bvtFAFyiqRupAf4MUC7bGSFoAu0Zql9rY9Nv5UrXLg8bPyNAFulqkLpznATNNN3Jg8J+RoAv0VQW8kI6JSC8kz0SgDQ4o4rP+2yf3U/I0fbZP7qfkaANDNFZpvpeflT8jSrfSk42p+RoA0aO1UWvJFxwn5GoG1KUH7qfkaANWjFZA1KYt92P8j/jTxqExbG2P8j/jQBqUVn2968k6xkKM57e1aFABWI6ljW3WRuwfvA+2KAISdpANSKxGNx59BTn2sPugCmIyjhVwfegBDjBOQPak435z+VOP3Scd6bkbs8n6UAOwVGTytOyCvPApSwYYPFISoXB5agBQo7EkUBBg4HNCufakUnk4oAQoo4JofHrz60mRwO9K/IGwfL60AQ++TikbJanv92m9Rz1oAToPemM3FD5xz0pgYYoAfy3HSgDHIGaAxbk0uWXgUAPUkcnFNYjpgCnDOPmxmoXbJy+ABQA+PrT+Kp6bfW2oW4uLGZJoCSA6HIyODVrazfN/OgBzLtPHSo9qgHOc05zjGcZprq2MgCgB6JgcZqQj5fu7qbAMLyw/nT2PHTH6UARBSR1pQihPmJzRuwnBp+cqAaAEVkDY7+lIctxjj1p52KuT96jJxwMGgBm0MNv+TTPKO7jHHepDhWJJ/CmFxnIBoAY4xyahK85Oamfnvioy2flBoAYw3Y28YpoXGSeTTQ/JA5IpxfOM0AMYKT83FMbDDg5FO3KCQxyKiDAAkHC0AOwKRfl3Vj6t4n0jSgBd3sSyEEhAcniuPvvH+oXxaPw/pRKg/wCvuzsjYeqkZJoA9F3H/wCvXPav4z0fSXCXF2rSHIxGN+CDznHSuAvJNX1OMR6vqkoU/wAFr+6B/Ec+p/zyyz0bTrAM8cMMWRh5WHzN7k96APXdPvYb63S4tJI5YpBkMp4NSP8Af+WvGPA/ivT9D8TrocN21xYXrYgUfdgkzyu70OeB7V7GD+7zQBKuc+tB6+lRoTu9KeTz60AOWpUZemeahB456Uqlc47UAT7gemfwoznI5/EU0cZxincjGMfjQA+MHGcZqVWycU2NgwxinhTnOc0APIG3OaUHjHamgnHNO6UAOXkcip4D82BUaJxyc1NGccAUAK5YEAkZ9qRQcnqKV3AyMZ96apbjIyPX0oAdwTxu4pxO0cGmcjucGnZBHXkUAIq5PGfyoZRu7CkV/m4/nSsu4/MR+dACmMj3pp46gjHvQDj7rEU7dxz834UANwG57e9NYMpyuCKQsXOMECnqhHG4EUAPY5U8Yz1qMjgc9OlTEYJwelRMfm5Gc0ANA4OOtMj77uv6VKx+TA600Lk0AKOh9KQjIAHXGaXscU9RlQB1oAiG7GOabyfTFWWGUwM5qHaVGBigByMTjGamUD0GaYmG5zz7UpBPf8qAJR05OaYzbeozSbiOKbIAfrQA5XJ+7mpNoxUEaEHJzVheB8+aAFBYLxjNDZ25YjNC7Scn9aHIJzz+FADRuPagqSh7UgfEmGzQGb5tuSPagBA3rTTjOalUA9uaa0XOcCgB8eMZ4zTHX+LIzQpwaRsk5oAQgAAk80BgT0puVLdaGIJFABIMryPypFbaozStyAM1GWIOCMigCQYPU0SAFj1pi8E/LUjEEtkUAIoUA/SoyBj71OYfKee1NixjsaAHKAi1ExAAPvVkZYdKgkB2jjvQAqkFxj86a/B9feggg80u3IGKAGlgScCnW7gueaVF/eEEUi/JNQAlw/zgZ4xVOZhuGMVfuyOOBVGVRvBwaAHxjjOcVIoJPYVCcdqlUjaMGgCWz/4/4v8AgX8q2qxbL/j/AIvx/lW1QAfWsRQd2W6Vt81iIcsAeBQArcDn8qRQud6mpPLyCWOaTyxjjj2oAifeSfmwPalAxjApxjK80dOKAHrkjjj2FNC5YAjB96BnPynIp7ggA+lADRHjOMdaASAenSlAbPbJpMHB6YNAEY9eKeMMMbqhUnODiplBUdVoAiC7crupD92grksSOtQgHgZzQAO2DjkikzxwufrUzhT8p4xTNnpQA0EgDj/61OL4I5pWwFFNA+YcUASO/wDe/OuW+JOs/wBgeCdW1EMA0cDBD/tnhf1NdS67/pWN4q8Nab4n0z7BqyPLbFg5RXKZI9cUAfOn7Ovj06dqz6DqkxNreSFoGc8JIeo/H+dfSGuS362AbSVg+0FgN0xIRV7k4614/wDDTwX4dg+IPi3Tp9OglFhcRva+ZyY0K54/HFep+O9G1DWvDNxpuiXaWU0wCNKwPCdwMdDQBg/DrxRrPia/1RrmGzGl2j+RFcwqw89x97AJ6DpXfo3yc/drj/BWh6vob2dpNJYxaZbQmNYbVWy7cfMxP411/wB771AD0XDEjpS5Luc9KEPy47UpGCSOlADCoA296CAMF8nFBK4BOee9G7nAyRQAEk4I6VJkcFjTd2RgGkyM4oAQ4PXH5004HY0pwey0zgdT+tADWNRsVH+9WbqHiLSrIyCe9gBj++ocFlPoQOa5C/8AiBLeFYvD2nSzBjtNzOpSONu4IOCfwoA7tPlLNu6Viax4n0nSn8u8vIVmxu8suAcHv1rgL+48QaopW81ZbeI8MlqAcg9Qc/gP88wWOi2FpFtS3j3H5meQbzn6tmgDd1Px9JcoU8O6ZLcuCQ0lx+6j+oJ+9WHLJrupxEalqzwkjG2xGzn6kmo7zWtLtFMbXiM44CxqX78DAzWautatqMhXTtLFvDzi4u2wGHbaBzn60AaFhpFjZeY0duvmv80kj/MzHjk5+p6VTvvE+k28pijlad14MMALsp98Gq40Ce7lL6rqU9zF1+zhtsZ9Pf8AWte3s7e1VRbW0UQAAG0f160AYz3mtam//Eus4rK3PSa6yzEf7nUfWkTw/HPIz6xezXzE58ouRF7fKK3fuP8Axeo6+v8An/PRV/x9+1AGB4jig0610/UIIY1t9Nuo5jEgwWUErgfnXuFq/m28cijAdQ2D2yK8e8T2kV/o13ayFkUoHATjODkV6j4Uumu/DemXDjBe3QnHTOKANQKc84psg+bbzTmPApxxjNAEakE7ealSL0FNjQMC1TDAA+agCRF+mKQg54ppbPrSgHjAP40ATRkgcD86eCT2waiU49qmHJ+WgB+M9vpQQwXOPwpoJ3dTilOc99tAE0XSn7sZ61Cn0JqUA9c8UAOVgxxyaUg5wM4pjZH3MCnxkk9STQA8qQB703GB7mnHcwwQKj5zxnNACrGNwOAcUEEAngj0FSKeeMfSiTK5wKAI0Vs56VJysZJ4oXGAcEfjShiVwMEUAQIWIOcVIo+U00jb97FORsKSAKABM7uabJ8pG0U/ezHPAprrjncDQA05IJpE6gEU4N8xU8UqkBwc5oARExJknipDwPlzj2ozz8oGPegONmcEfSgBcng9MUw5OeeAaMk4Oe+KflOc9etADfkDcnmpFG09MUxVVm3AU/b824nAoAdtAB6Gm4BNP25B6U0YBPWgBVUN1OKkCqRxUYIPGM/zpwG3kHNADxtK5HIFRyEHIz36VIhxw1MmAyTQAwqMZU4PSiJGEeSTxTljyMnilXhc4470ACA8EHinEHB559qacqrY6GkGQfm4yKAEjwQc9femurZIBGPengbc85zTHBzgGgCLBDDipAPUAU2QOuCGBpyZ6kjOaAGMjGQHotKV4wetPViWOO1B7kn8aAGqO460+U/McegpiENkHAFOIIc9CMDFACE5wOOBTEU8sAKVjyMdaVA3PIxQAQlsncDTWBAyxHWpSdq5JNQSMSgyB1oAR23EYofjHNMbjHah2PGDQA9SwOQT9aE3eZkH8aau4HBP4U+HO/k/hQA+4wQpxVZiueRU8+7AGaoy7g3WgBz8k4FCAg9aUEeXn+KmhsgbutAFqx/4/ovXn+RrZ5rGsCPtsXHPP8jW1mgA71jL98E1s9Kw/MBbaBj6UAWHbj5T+VICpYfypnATIGT6GoY3+fJPegCw/wAqEtk0xVLKcYPFK+9s84HoKYPQcGgCSPaPrTfNJIAIyPWnKOCM8e1QsAGHGfagCUfMSeDShMBgc5x2qNWO1jz9KcgLHjgYoAZtA4Xk07kDng0HGeODSkcc8mgBmOuO9M2L1I5p4PBJFNO3jigCMkknFIRgg5z7U9yqkgYBpi8qWJAAoAjDtuwwp4YbsUYy2TS7AWyKAHOeCegH60w889QOoqULjAPIPSs/WZjb6fczR8OkbMPfAzQB5la3NvoHx1103sqQw3unxShnOASCFrs4/Hfhx7+a0/tSASwgFsnjBGRivI7IW3iK+m1vUXivb2QmNWX7sKA/cUdv8at3FpYQWDJdRwxW6clmAHP16+lAHu0F1HcW6TQOJImGVdehp2c15J8Gb+W2vNW0qZ5TZ7hPZK7cLEeMDPIyea9ZDf7LUATKBjHantgcd6gVwTzxjtSzS8biMYoAVVVf85pT221zmseLdH0Y/wCm3sCMcgL5gySO358Vx918RdRv5XXQ9JlWBQP9Iuv3Z3Z7Keo96APUG2r99sfpWHrXivRtF5v76KMgbsZyTXm94+t6qrLqWrTxwMC2y1PlnoeC3ce1Ns9I03TY2e1tooCBy5H6kmgDdvPiLeag5Tw3pu+IZJubrKxsMcbMZJOfasnUZdb1j5dQ1R4bQgq8FsNu7Po/UVnXHiXSElMEMsl1MDnybYeY3ftUEV9r1+wWKyhsbZv9XLIcufqnagDUsdKsdPVXht16ZMsvzsx9WY8k1FqGuabYoRcXkecgBUGcnGeMfSqf9gtdGU6nql/MrHDRwuY4yMdNvNXLLTLDTYSthaxwjOMAe3J5oAw31LWNTlCafp/2SDHM14CDnI5UDr07+v1qZtCl1CPOsancXMfOIYv3IHryuMj2NbRUt82cbe5HHaldW+X+XegClZWVnYR+XbW6ICCdwXLZweScfrVt3YsSwwQQDjkGlQtwCo4HcduaC+4DCnOcjA6j8qAGc/NtbIA71E7FUVl/kaddXEFrHvvLhETODuOOT/8AqqjLqctxFK2l2jzRqpJuZhst1wOQXx2z0oAuvuL/AJ4POPWorm8t7OH9/Miq3bq3PtUfhHRNV8X2Ml5dyPp9izlEEQw0idyrcEDrg/8A160dX02z02/h0Pw1ZfaNeljHmXko3G3j/vOx6nrgUAc6upXGtNJa+G7CS+mOEklb5YoT/tnr0z0r1nwzYz6XoFjZXTq0kEQRio4yBTPCnh618PacLW23OzHfLM5y0rnqxNbDAA0AKrDFOz22g0zqRinZIbpQA5Dg4204YPakUEjI4pwUr3oAduPFOJzjBFRqPU5p6gH2oAfjNTgehquKngweuaAJQh53GmAc4zinFxkg8ik47LmgCaM56Dinbc8frTFHy5Ap0W4KSSB7UAO2ZB+bigcdGpcqeTn6UmM8dqAHgLkEEn8aUqu3nIpkYVTTj8xzjPtQAhH3cMSKUtkc5NNDBX9qcrhicA0AI6r3GPxpVbaKdjOPlJU96Giyw2jj0oAiKh2Oec0oTHAGB604ph+lPZlCbQuTQAnQjHPFRtxjcBT+MjIIpJCGUAYNAAiqTng5oIwcgEY9qWMEdQKXdzgDNADB3qGe4S1t3lnYLCilnZjgAetWOn3ec15Z4p1G71XxEdPvdL1T+wbRgXWCAt9rcdjj+AfrQB38OtWB0VdXFxGNPZPMErHA2+vNOutd0+20n+07iZY7LYH8x+Mg9OK80utRm1jWFGqaFrEfh6zwbe0S1IWZh/E+Ow7D8aqW/iQa74qmk1TStSeDTj/o2nJbkhT2kftnrgdqAPWdS12w0rThfX0witiAVODls4wAOpJyOKl1XWbDTLJLu/lEcLlVQMDliegA6k+1eYWGrXWoawdW8RaBq0jQk/ZLQW+UhAP3vdj+lFjql7farLrOv6Dq0ksBIsrRYNyQL/eznBY+vagD1DVtbsNLt4Zb2UQrKyoinqzHoAOpNWx8wyhAPWuQ8N6Fe398Nd8UKDfEf6LbdUtUPQD1b1Ndl/OgBUT5+uDUzEAetQAE9MZqRR/e4NACElj1wB0phBLYPWpAMsV6DNGNoyBk9OaABVIXBP51IFzwOAKZjcuBwR3pRnkdaAEcqxxg8dcVC/zMCpwPSpZCMknrUO8YODQBIpwOe1NIHzYyc0kbdicr3oYgcgYoATaNoywNREnJVuRSueRtxmkTO/5hQBIg7KM05gacpweOtRysQRzQAwfNkADAqZ2AIyRjFQ7txwtSugA554oAQrliQcilAIBDEfWoUclio4UVKSNpyxNACBSU65qleXUNlZyT3UixxRgszscAVf8Aup7frXmXiddc1HxA8dzo8lxotsQ0UMcyr57D+Jwew9KAOss/EFncaG2rS7rezALBpxtyueG59ab/AMJDZ/2ENXuA9tabd/70YbHbj34/OuH1RPEOr6rAdS8PSnSLfBitEuEAdh/E3PIHYVm3Gq6rrfjP7PfaHJPbWih4rKKZNqt2aQ+voKAPSZPEdlb6Gmr3u+1t5Iw6rIMNz0GPU+lPufEdnYaOmqXm+GF0DKjD5yT0XHrXCSx+I9R177dq/h6Sa1g5tLUTLtQ/3mz1P8qkt/8AhJJtd/tDWfDzXJiP+iwCddkQ9cHqx9aAPQNQ12wtdDTVb13gt2jD4kXDDPQY9fapIJ1uLeOeMMEkUMA4wQD6iuW0/Sr7xDqEWqeJYDDBA2bTTyeE/wBt/VvboK6xx2HA96AGxj5zmlYZfinoPlOaQgDp1oAn08EXsWff+Rrb/OsTTyftsXPr/I1t80AFYG4biNu1q36wgByWFAEgB2k8Ee9QptDdKUgEjqV9qepTqBwKAHs2BnimqRtzxmlyDk8U3ICnpigBwpTwOetIOVwtKOF2t0xQAwgAjBpygjJz+tMLA5wOlKrE4wP0oAZuG/BxTmJJwCMUjkbsEClyvQYoAaWxigMDmmkZzRjGKAHMqmo2XHbilZhUbMaADpXOa/420bRAy3FwZZQceXCpdhxnkDOK6GQ/yr5qklbw5441aS6BCeeResfm8vcS0bAnnGMA+5oA9g8NfECHV75bS9sp9NaQ4t2nZSJfy6fjXY3ccctvMkg3B1wegG2vEtQg/tGz8uMtEWIaOQcFWBypH413/gXxMNXiax1DZDqkChWBYfvVwPmX2P8AOgDxzSNI07ULK4kitjYymeaMNFM4A2tjPXnpXQaJ4c0uPVLXz4nmfcoJlkZgx6ZIJxRPKieLPEVlEsa2lvdARqiKAuUDMcgcnJNW7Fmg1G1k+X7wYDp6UAdbaxLp/wAU5FWJBDPYqoA42BWP+Fb+teLtI0k/6XfR/LklYzuIx7CuA+M8Kvq3horJPC99I0UrwyFG2hdwwRyOaw7PRrO02yFUaRDlXmO5uO4Lc5oA6ub4j3mpzMuhaVKbVjhbqb5d3/ATyKytRn1nWsJq2qFLY/ftLUYWVevJPI/A1kajr9jZyrHEZLu7bhLeFdzN1/AUyO+1y+iU29nFYxsPvzkmRefTmgDWisbGzgDvFCkSnG6Y5x+LZ/z+YpX/AIlsLfMULPczEYRLdC+T6ZHT05//AFUh4dhkbzdXvLi+uNwO5nKR4yONgOK2NPtbe1gWK1t4rePuqKBn6+tAFS0utbuo2b7Jb6aM4Xzm8xj154qNPDEdzMZNZvrjVH6hHO1E+gH9fStl/n+V9u1ecjvUg/120fd5496AI7KC3sj/AKNbRpgcELz34B/z/jZMqiRjhSc/d9qa2UB5y3oR257/AI0IpDAjDMc57igB+du75QVHt7en+f8AFhbCptX15NJdXUMAkM0iovA65P5f5/nWFrHiS20618+C1ubxfMEWUQrhm6AZAJ79KANnczIu31HYccjj+X+ejJbiK3/4+ZYos527iBnipLDw3r+q2qNdTR6WHAbMQ3OPQYIwPf6VnX/hhbnVZdD0CCb7QNrahqdwS3lKedqA8bz7dKAK1trTandy2ugWcmozI4WRx8sS+vzkY/CneJYtYtNNht5Jkh1K7bZb21quZWPck9AB64r1Dw7olj4e0mGw06IRwxj8WPck9yao6X4cgstXu9UuJnu7+c4WSQf6pOyKOw/nQBjeDvAdpp1kkmt/8TDV5BmaZ8kA+gHtTb7Sb/xLrb2d7A1n4as3/wBSQA16/Xn/AGB+td4u09Pl9qVjg/d3cUARwxiJFjhQKqgKoHQY6U1kRZjIEHmvgMwHOKsZCnIJx70xxgEjPSgBhBx8poODxjI9e9PwuwEdaVeQCaABQAoPNNfO7INPONvzflUZILGgCSNulSNnHtUUeMDNOckJzQA8EYFPUZIqFCODzmpiwGMUAGcbuO9TxsMCoGJO7HrUsa4I3CgCZRlu2KlAytRADPOcU8YxgdDQA4KcDmnpxkMaRBnrShOTk0AObbjg80+MDB3GoyCfm6H6U5QT9aAH4Xgjk/SngAD3ppIAA5FOXGMk0AREHcDwOe1Kchsgj6UFsjLKKcAuMtkZoAduLY5I9c1Ix+XClT9DUTAEgj8qarEPsxx1oAUHjgkCkBXPGTSs6560EAjI4PrQAEZ4NRng4FTHnmoyvegBfMI+XFNJKninLjrQcHk0ANB9KX+D+768UJtrk/FviSaO6i0XQEW41q4HflbdP774/Qd6AG+J9fuJbz+wPDm2TVZRmSQjK2qY++3v6CtTw3oEGgaZ9mgy8jnfNM/35XPVmNM8M6Bb6DZmONnmuZW8y4uJTl5XPVif5DtW6zbjluFoAbGF6KD9ak5ODgfU0BkHI5z6UGTHGz86AJkPz5pHHzH9KUlsAlcetNIXIy2KAAAg84H0NOZcEHLfnQFGcg4/CpCuR1/IUANA6bf1peg+YflTVPHB/Oh2+Xk/lQAoYMcL0NKeBkdRUSnAwBijeC2c4zQAmSScjimnocLxUhZTjn9aYzbTkcigAQDHAxTyucZqNXzz0H1o3Ag8/rQAGMDJpm5uy1IrZUnNIrg8ZoAjDFicilVTwaDgEjeaco2r1/OgBMgE+9SMeMe1NUKz4p8gw34UAMKkfdHB601mK9OQKPYtx9KbwCMHIoAfnKZ/CoH+7/j2qwOhrjPFOuXLXg0XQh5mqSj536pbKf4mPr6CgBnibXLme6bQ/D2JNSZczTn7lqn95vf0FbPhzQ7bRLPybbc0jHdNM5y0j92JqPwzocOhWHlQEvPId0078tK56kn+natvd/nFADW4akX/AF1B5c0p+WRaACVeBzUEo5HNW5RwOKrTDnpQAA4UYOaE5JyKQD1pM4agCzYDF7F68/yNbXFY9gf9Li/H+RrYoAKxG6itusbacj60ANc4U4qNBuHNSY55qPOGwKAHHjpwKEZSvv70fM3GCKTp2FADlYbiF60vzYzTQuTkU5flGDQBG3rwBTo2VunBocnsARSLhfQmgBH3Kq/N3oYpt2u236muI+K3iy88K6RazWMcRe5n8ppZgSkQxnJx+VcFDHf6pEs+p63dXIlG7ah2qh56Ec49j6fWgD3BGGDhsr/9akDdP7teceBfFFxbXkega9IXmfItJ8cOg7H3r0WgBzUx9tU7/VLOwjZ724hhQfxSOAK4rUPiTZGcw6La3GosDhnVdkY/4EeD+FAHfbSa8X8XW8Wm/EK9W4RHt9XiRmL9A6Lt2/UjJqbVNY8U60QrXaaZat1+zYMw+pORisfUvDov7PZLeTyXwYMt3K5JDDuB0/CgChZS/wDCP6nLY3L/AOgTyYs5HOQhPOzP9K0Nf0ue9sfP025ez1GIfu5Ym2kjJJGfT/PNQWV1b6za3GlalGo1C2+V17MecOvtVfSb+S2li0nUTIt4v+qc5xKvXOfWgDO8M3Er+I78xfaFPkILkzjkzDH58Y59K65Pk+dfmKjo1Yt3bC38WQ3aMsQni8tssB5jDPbuRxzWtvVE2/Xr1oA2fi0z3Pw1s9SIUahBPF5M4HMZLgEj6jiuTh0FJLkTavfTX1x95lY7YunG1MnFd3rRF38Jb4S7JdkTlehww5B56fpXIaFPv0WykZ8tJErMx6k7ep/E0AXLeGK1y9pBFEuMYC47Vb8w7jywAycdB1qBg/mht21c56/X3qdcSK5AIJ4zn/PpQA3+625RuPX8un5Uq5HzZ9MEfh3/AM/4x3Fza24YXdxHED13sAB9cnpWZa+If7U1ldK8PWk9/dA/vHwVRB2JY9RQB0MYfZuVev8APt/n/JS5uIbAeZdzJGvXLnH45z9KdeaBqFtp81z4g1eLTdNiXMogyJOPRv06Zql4L8EJ4g1RNb1O3mh0uJg1pbzEmScjpLJ/MCgBY9Un1Bdug2k17uGVlwfJPPPz9vpWdI2v6rryaJpMkEci4a9kQbltwc5Utx83oK9e1bSZJ9Ils9KnGnyONomRASg7498Uzwz4esvDunLaWMZALF5JXOXlY9WY9zQBhQeD9G8P6dcXL2k2ozRBpf3zGaRzjoM/yqv4X8O3WoX8ev8AiKMRzqMWNgRlbRP/AIsjv2rvGWlZFA3fxUAVWizjJHFA4yFGKe6gkEGkYZBB4oAjZMDNMVcmpduI6aPumgBhAXGBipAcqfajBKjIzUZPBxxQAHIPFSHG33qIZHWnigBnOfal3EcYyPWhwcZA/GkUHGTxQA+QfIM9fWkKfLmnEbl5PSmDhiASRQA6MHvmnHce3FIjhRg805GBNACRj5uRUoZc4wc03vSElcYBNAEhyd2KnjB2jNQcnrkVOASoANAEnPenc7ajJIGPSnKxPWgCZW6A9acFJHSo1I3D1qQPgkHrQA/acdKVehOKCx6jgU4HIxQAwkjkjJpu4nrxTyuCMD9aGUEZxzQA1cnuPxqQB8YyBUR3YACinK2OAMn6UAPYlcdM0KoUcsATzzQFzhic+gpxXjON3PegBqqGII5pxA57CkUEY9adjrjgUAIFHX/Jph5/i+Wkuplt7eSZyBHGpZjnoAM148mpajbeGPEEFzPNDdx3UV1E3m5IjlKnGfTIYUAewRDBb5vpSOzL3UfWmQMEhUk4BHJPbiuN8ReOLCPTj/Y8sd7eSM8cSqflyv3mJ/uDuenFAF7xV4iks5V0zSVFxrdyMRRH7sa93f0A/WrXhTw7FoNpI7ubnUpz5l1dPy0jfX0HYVkfDixtTpj6ubj7Zf3zFprx1xvx2XPRR2rtomGCcigB6DI3HAPoabIQvzArihSueMZ9qa4UnrkelAEgOVyT+QpV55B+uRTAVZMD8MGgEJx/WgCwDkYrm9d1t7DxHounLGpW+aQMx6jauRit9XHauI8Yrv8AHvhD7v35v/QKAO4Qt92q+q3os9KurjjdHGSPrjgfninyyxW0DzTSbY41LMcZwBXLS+N/DFxEVe9Ro36gxMQf0oA5KK+mg0WbTdS1CWK+t7mSJEeXaXLruVmbPRd2fwr03TQ/9m2u+bz38pMyjkOcdaydLuvDviOWY20NvcyIQzsYunYdRXRDy0ULGoVRwAKAHIRjnOaZkgnCZFOJXA5FIhUE7jQAjru5xg0dMcilLZOQQfakEikYkwD9aAAHGdwoTB5GBTHkQD760iuuc7h+dAD3J3YyKZvw3U0O6lgdwP40b0IOWX/vqgB4+bsPrShe+6mK6BeJB+dOSWNQcsD+NACbCGLKeuO1PdwB3yBSCVTuG9cHGOaRpouAJVBA55oAQvgbsVDvU7m3VU1rWrLSbGS6upsInAAGSx7ADuTXKan4ruPsEVvBaGDWLuMyGJ3ytrHn78h7cdqAL3iXX7lZo9G0FVm1i4GSTytund2/oK0vDnh+DQ7NkRjNdStvuLh+XlfuSf6Vl/DW3s10mW5tFlleaUmS8lHNyR/EM/w+ldaTuyTQAmMHHJoIb1FOwp7kGgjjHFAApxj170jDEwIoBwQO9OPEoPagBJWyKgk6DmrU7ArwKpyjOKAFUcCngdeme1R52kAninbsnpQBYsFxeRH6/wAjWxWRZf8AH3F+OfyNa9ABWRIccr17Vr1isQTmgBGLBTgfNUR3Dk4zUhA3AqTmmEsT90UAODc5zTMclh+dEm4jqPpSR7iuD/OgB5b5etPH3OtQhWz1pzbgOtADqb/FVLUNVstPh828uoYkwSS7Y6VyN18StKDMNMjuL8A/6yBCUPrhsdRQA3412ct74HnjhQuVnidlBxwHBP6Zrzm5ZvDt8tzbrJ/Y0y5kI5MRPQgelbuqa74i8S21xaypBplrIDEw/wBa0gPcYxtPT16VlaJdCAJoesJi52ERbjnz0Bxn6/5+oBomJL6JHWQoTho506qeCCDVZ/FPiW91aXR5r2DT/s8ayedENzzg/XgHr0rKsJn8N3k1lfM39mXEm62nc4WIn/lmfQehrY1bTotViTYzxXMIDRTR5GG9D6jjp/kAEP8AY9vMAbprm8cfMPtMhdffg8U7UL2x0yDdNdQRIijCoMnHso5rm7F77xEsseo332QxSFZba3UpIPQlvQjnp3rZsdF0+0mSSK28yaPpNL87j8cUAVo9cv7xGfStPlli/hlnARD+Gc4qKXS9S1FFOs3xVC2421oSqj/gXWt24mQ7V6bv6/h/n8OGPKrllyzL9Pr1/SgDFvvDgh8q80FzFqEQx+9csJFOMqc/zqG4aPxNoyyWjNb3kLnYxyCkinkfTPFdHE6oUO35V4P6VzerwSaRqEmqWEZMBwbi2U9fVwPWgDOv75Lu50y4vz9jn06423UbDJBZQoKj0JxXWIS0hx1bknpjr3rmfG1omsaXHqdpKFwI3J2/fjDBse2PSuhtLxLmCORDuRkDIQOxGR+lAHbeGEFz4S1S3ZlaQq5Re/3ew71wXh4wwaPAJpEURkxkZHy4J7V3HgBlS/mRcZZCRznnP6f/AFqzPh3oehXdvfG/tom1G3vphNHOv3CZGZeDxypB/KgDlNU8RxW1pPdW1tPJBD8ryPGUUOc4UZ5JOO1dF4R8J+IfEWnR3esXQ0iGXLR28A/elT/ez04p2sXmjR+KkuvEN5BeQ2zAaXpdp84443sOhb+WK0NT8eaxd2+3QdJ8pj/y0uJNuM9wMHnnpQBU8S+FrPRLS10vQ7Fri+uiw+2XjGSO3UYJZie/oK674eeHdM0HR/K02aO6lds3F0CGaV+5JH8q8+uLC+vZfO1zVbq8mbA/dExJgcj5RwT71P4fdfB97HcafHKdMck3iL85VecNj69T/kAHrGraJYawtsuo24uEt5BLGjH5dw7kd/xq/t2YwAMDAAXpUenXsF9ZxXNq4eKVQ6sPQ1YPy/MaABh8gpHHShmzSMfloAGABHemvyu4inbeOTmmOTjigCu2A3JxTiqle5pMB/mJxilDDAxnFADMADFMOc9PzqUk5yAKjfk5NAACTxjP0pDwMbaevA4phBY5zmgBuwnBIpxAJ5BpQdvU/hSA5PSgALKq9KZuz24pzqD1FNfHAU0AOABXrim8K2c5prgoAc5pSoIB4oAcNpBO00Kd38PHrSgADB/SlOGGBwaAHqMjnik5CkYNKudvOaAQEO6gB0fKnOc1NHnAzxVdWAGanT5lBzigCYkZ6cUkeSTnGKRiAKMZ6GgCTndgAZFSjhgxANQR7s/NU6emc0APYkdF49Kejn+JeKizyOOamAG0c4oAGYN0PegHHXnHtSBcDt1pVHzGgBHY4GBgU0buaWUZUA+v509F+Ugg4oAap2gHFG8nOOlIQMAY4Pf1pwj+tACCQHoaerN3UGomUA4ApBuHDZxQBYcK6FWQEHgg9DWfcWVq/EttC27AJKA5A6Z+lXAfk4asbxRrcOh6f5simW4kOyG3Q5eVz0UCgDhfiH4huL+8k0LTY5kgDiGQx8PcOf8AljGfTHLN2BrC8L+DZtf+0wXqy2unRkwTSINjTFf+Wcf92JfXqxr0fwh4fljuZda1wrNrNwMY6rbp2jX0Hqe9dOR8/DbVoA4iLwFBbosVvq2rpGowqi5IAH5Vai8Dpj5tZ1n/AMCzXWon7ynM3VeaAOO/4QiIH/kLa3/4GGnP4Gi3/Lq+s+/+ltiutZ2420rFuKAORHgSD/oLaxn/AK+2pf8AhBIe+rax/wCBrV1/1ooA5IeBLf8A6Cusf+BjmuU8SeEobXxp4Xh/tDUys7zAsbp8jEeeD2r1xD97+Zrz/wAf3GzxV4adGBdGuP8A0SaAMbxjpZ0G3kuP+Jrc2axkvKdUKAe2Ceaq6Rol/qCWsjaNq8NtLtJZ9T5RTjkj19qv/D7TdR8VWOm6z4pkWWGFQ9rbqchm/wCer9ifQdq9LF3brCZXniWEHGdwxx70AcrF4D0+PJW+1QMfS7f/ABpR4IsCebzVs/8AX7J/jXY4DKHGCDyCKbjn1oA5FvBOn/d+2at/4Gyf405PA2mt/wAveq/+Bsn+NdZ+NC8e9AHJN4F09f8Al61H/wADZP8AGmf8ILpT9ZdR4/6fZP8A4quwkbA/H86izQBy3/CCaUf+Wuo/+Bcn/wAVTW8C6UB/rNQP1u5P8a66LvSOFWgDk08DaP8A3r4f9vcn+NH/AAgmkf3rxl7/AOlSf/FV1Xy/7VH0oA5VfAeiE/duvxuZP8ad/wAIHof9y5/8CZP8a6mHrT2FAHIv4B0X+5c84/5eZP8AGh/AeiL/AMs7jdg/8vMnr9a63sKxPFOtx6bBDBbR/atTuSVgt1PU56n0A9aAPNjoy6ZrpnNsZNVmYpp2ntMzpAAcedIT0/8A1Vo6X4XvNR1O6g1IyJYq+bqd+HvpPQf3Yx0ArsfC+gf2ast3fyG41W55mm/kq+gFbpQH/eoAjtYkhgEcKBI0GFUDAAFOUkKSelPQHmo5M7CB+NAEsZB6jrSTZPbGKYgIxg5xT3YY65zQBGgIbOc5oJ/e8E0qqA4PP0p5xv5oASZTgexqvKeRg4IqzORgfN0qs65wfegBg6804HnijFIOGzQBa08n7ZEPr/I1tYrGsDm7iP1/ka2cigArCrdrCoAQnPHf+VCjHenNgDio856f/qoARj8+B+NUNS1aw01d97eQQIDyXcD+deWfEbxbfW/jh9HF7NY2CxRkyogIdnyME9vwrPj0iza8+13Pm3Nw4ALzOWXHGCAeP8/kAdjefEu0aWRNFtbi/dSU3bCiE/U4zXO6p4h8UaysQaZNIt2+YrHzOCM8FuVqvqOo2OlWiyXU8dvCoGcDJH4KM1mf8JEbuP8A4lFlLdhhlHfAUe5zg4/z6UATyaPaXMsc18s1zMpDK8zHg9+OKvXN7ZafCPtE1vbx5OELBSevQdzzWM1hq2oMf7Sv4reMDJgtBkYPuRn8jUun6BpljNvW3E0x5Lykv+WcgdvyoAj/AOEnM8hGlaZdXbg43Sr5OPxYD/P6wT6VrGsTQXOoXcVtPbndAluuGQ+jHJB644//AF9DI4LEFlCDsO3+eaiAHmDk5ycGgDOt7qPWbe90rUottzGmyWM8ggj7w+uKp6FeSaVONI1ABZE4gl/hlTjp7jgf54v6vpj3ji+sm8nUbcERyN91v9lh3BqhHLF4n8PqWXy51YdODHIp/lkfpQBNr9kWI1TTI1XULdemOJV7qR3qxpV/FfWcdwgAZ+GTBJVs8j/P+Gaej6q8ty1nqZ26nEm5gvAdf7w/SqurWh02+XV7BWKbv9LjGDuXB+YD1/z60AdBIqlPlbryPfj/AD/nor/xb9q8d+2M1z2u6tqRsNP/ALEs1E2ofLbpKN7Se4APygdya3NW8Lx6Hp9il+J9Z8RXnyQxDKxhuMliP4VzQBnS+ILH7StlY7767dSwW3XcBj1I6fjUPiZNdt9Nhghghtry8by7a1I8yWYkc9Pu47k12/hy10H4faTNc6ne239ozfNcyryxPTCqOcDpxXLw+Krca9faxp1ncapfzErBcXBCJBH2VQcEdiT3oAyL/wAK33g7w/BbaheNcW14rCd2HEEh5Jz2X61Z8Pyxto1qtuysoRVDYHYdf8//AKp9QbWPESzReIdS2xSjaYLUfuk9OvOfxrN8K+QdG8q0DrHbSvD84AJ2nBNAHfeA5VXXAj/KxGP8Aa5LxDp7x/EjxBbzXUkf2vZcxxRttBAAXn/Petrw3eCy1qGWVcpu2kD3/SmeP7Y2nxHt7rllurbyxgehz/SgCrZ2FlZhzZ20cJb5jtUdRVpGAceYc54IC5/CmpKWBH8J5xgflSxOXl3AgKScYoAnB37w3RRhR3/z/jUgkbygDkgY46jtVbyyAW7449TU0MhKsTjlB24HSgCXw5rsnhTVpPOBfRLkr82eLVu/4HPXtXrcVzFdRrJEwkicZVkOQa8f3JKjJIoaNxgqcc59v8/43fBmuDw3Imlagypp0jH7NMzE7c9EP+ec/mAerFTu64pT1x1FMikWQBlOQeRU2wEZ6UAMPzHjgUHlRTyAM0wEcmgCvJ8o6daYGZPl4qR8vgCkA6gkZFADSeOeKjYbuhp78d6ZuFADVO0805nUjjmjdnoM009c7aAFySckGlzkcU185HPFHVcDFABIT0x+NMzjHFPK/Nj2oC5WgBNoYAmgrtPApoyq880qMxPegAJOcdKkOQBimjPOWp+Mr60AB3ZFKzccimsQOM0Ejb1oAfuHcVMGwARnFVyu7HYVKoGAM8fWgCXcG49afwMDuKYBg8Chc9xQBOhyOccU+I4J9ajRvQVIFJbGKAH53McZp5GMAdaQr2Ix709OB0oAYMkc560oXaOnPuaceeeetG8MSOmKAE2596ViVz70E8ZXGaBkqOlAEUe9+uQAakJK8ClyFUgYzmjdnOaAG8H1pfu/xVE/X71cP4j8YOLvZpk4isbOQfbboLv3HtDGP4nPT2oA6nxBq8Giae11dksPuxxr96RuyqO5NYvhvRbq6u11zxAoOoOP3EGcrap6D/aPc1w174nEXiuwm1l4U1F2DJbTtmKxg7lsdZWFd5/wnnhlWCjVoTnnv1/KgDqh/wCO0bvnrl/+E98M42/2vBn1yf8ACo/+E+8Lt/zGbf8AX/CgDri361GPlU/WuX/4T7wv/wBBe3/M9fWm/wDCf+Gf+gvB9cGgDqx0+bb7UzLL95q5f/hP/DC7f+JvB+R/wo/4T7wwd2dVg/I/4UAdYDu96dXKJ4+8NKcf2pGP+An/AArO1/4g6ctqp0TU7BrjdyLgPtx+A60AdpfXkOnWUt1eSrHBGNzsxxgV4dYamdf+JsEyLcJbTXjrGs4wdpt8bgOwPWrOua9da9qNnJqWs6LJYQHebRRLtkbPBbjnHp0q9rmveG4fGfh69tbqNXaZ2uGVWxxCQvagDv8ATdPPhjwitpHL5ptYSoYL94844H4Vw1jZS2mn6jpeqQSsyXH2iCVEZ44zJGSSR3+bPHqa7H/hPfC+0k6ko7H5Hz/KnJ498MBcfbwR6mN/8KANbwZHLD4V02K5ieKVIVVkkOWBArVQ+/WuZ/4WB4Zxxf8AP/XJv8Kibx/4dHP2tyPUQv8A4UAdZjd8tNwwOP4a5X/hYPh7/n8k/wC/L/4UDx7oHJF45z0Hkv8A4UAdU6461Fx/ermD4/0E9bqX/wAB5P8ACmP480ADImn/AAt5P/iaAOu2/J8pqM/3T+dcwnj/AEIKMS3JPtbSf4UyXx9omB89yP8At2k/+JoA6tvuChNq9a4//hP9F/ha72+1rJ/8TR/wn2h/K269/wDAWT/4mgDsxtpS392uQbx/ooTdtvNvc/ZZP/ia56/8bPqckF5pTyJpMUmFIUiS8l7RoD2BHJoA7DxRr6aRCiqjXF/MdttbIfmkY/yA7mo/DOiPaF9S1ORbjV7oZlk7Rj+4noB+tcdojalqXixZTskv15vZyN0dovUQR9ix7mvUtuUjb60AML85IzTCWLZ+7U5TauTUbKGHPWgBVB3AZ5pJf9WQOvrUkS4GD+BqIjlu4oARME5zye3apmQYyo+tRRsFO1uQakkcqvA+lADVPq34U4DLLnvSJyoDYBNKQwYYIoAWcZXAHeq03AGRV2bmI565qnMMp83SgBi/NQR82KAfSkwd2TQBYsf+PyIfX+RrYxWVYj/Soj35/ka16ACsE9e/41vVgH8aAHEbkIpoG38qdnDAe1Ix9KAPIvijp6al4psoLqFjBcW8qbvu84HQ1wuiWN3qST2+o6hOjWTiFooHCbRjgZB5OMf5Fep/E5PJ1LRb6QDyIpPLJ/2nIC8V5xEX0/xpqlmxUi+C3yMD90DC4I9eDQBoWujabazCRbdJrgHJllO9x0xyf8/10BgfNuAHX5en+f8APpTCCpAeTkDLc/5/z+RWMAhfm+YAj8//ANf+e4Au75G2f55/+uKZ3X+9z6cc9uf8/wA5Ps29l3ttwc4zjHGOtUptZtQ4jiWW6cnAMA8wD6kdKALLszBtvGWxk9BjOTmplTBHIjXPQ+nr+n6flm+Hf7V8W3N1HoVqlrZwSFDfXILJIe6qBjn3zU3irw3JbeTpEc0+ra7eLkR9IIkyMs/HCj9aAK39u2X2x7a0Y3dxG2xorZcspGK57xF/aOk69bXemaU63N0jG4s9xEkiqPvlBwAOOTXtfw/8D2fhHRBbRYluZMPNMRyz45x6CpfDvhSDRru8vZpWvNTu2JluJVGSueEAHRR6UAeT6hYLrFpb6tppEWpLHmM56j+43+etJp2uWk2ny3d9NHAImaOVXb7rA4OB1IyP8446X4neH59C0291Pw+rxxuhaSJBxG2PvL+PUfjXnPgyy0y9CT3luW1QhZWeY5J4GGXGMigDW8O+IorDXm1DSdLkvYfJKLIV4DZ/hJPA55rTvNW8R6rcyXN/fpZqQVFrbYYDjGQ55zweKnBKEhQqjjgLjjjH+f8AJafnTb78c80AULPSrK2dZWiaac9HmcuRyemen+fpVsSYGz5c885Hfof5f56uO75gv3z+QH0phb1+X88/5/z9QB0G7f8AN91jgN9OnNY+nyq2qarpsFvHDBaFGDA/fZ13HP41pJInmgfN/e/KsbV7iTSNY88wE2lyoWV41yQwwAT7YoA6KJtk8bP/AAsO/wCP+fp+Wt8VVaPWPC2pt/y3c2xTGAMqWzk89q5IeIdLjRpRqdthfmC7xu+mPWr2ra5N4uGiCO2kjsLE+cZZQEaR8Y4X0A/OgC+VEjBXB24z7fz/AM/zdCSQF8zBz93r/h/n07MkZm4X8O/Y090bbkhgRzn35/z/AJ4AJCH+bb/Cf8/5/wAh3Luufu5HH4gf5/zmPDyp8rbcd24496z7nW7HT5vJ8/7TdDk28I3P65xQBsbG2fl37D/P/wCv+JlzaxXdi0N6obv9CO/4H/Prh/2rquofJpdgbdD0mvPlK5A6KPvfT3pV0O8uGK6tqc0zMDlbfMKjj070Adp4J8XR2epxeGtUuxJdBSbeZmB38/cJ9etemZ453V4HcaXaaVqOh3lpbrEtteLJIVH7x+CM57nmvekbdEjA9RnFADxwTzmo2bA+YZHpT1U5470kibVHPNADMYORwPSopTySelOYgjOfmpFUnNAEQGQMmlwO1S/UVG1ADMbR6ihn4AxlaXkLjrSA5G2gCNietPiIPFLgHj0pNu3mgB3Rsc0zox601m780E/LnmgB78jPOahR23ZOeadzjPX6VFLIkIzLIqgf3qALHamhuOvSuO1D4haPazvBbStezoSrpbrnafr0rAu/Get6pFImk2AsAWA8+4bLgZ6hO/50AeoSSpEpe4kSNeuSQOlcrqvxA0O0ujaQztd3WMiO3Xfn23Dj9a4aSxub8iTV9TurqQ9kcxpn/dGasQrp+jWTmEW1pAvzMPu59/XNAGpf+K/EF+uzSrOOxQ5BluWy2COqgHqPeswf8JBYxm6tdVvb68Qgqk33ZRnoQOw5rK/4SRbiTOm2N3eRdpo1G39ef0qdbTX9SI8y8i0uI8bIlLs31Y4x6UAez+H9Xg1eyWWJ1MmPnTPKnuCPrWnyK8d+G1mnh3x7d2899K8eowDyFlYtvkHLH617Gny/xUAODYOAOtTRknj0qEsRgntTwckEd6AJ+SOadG56qaY3EfPemwqq9TQBOZcrtPXPpUeSAQaCAOT0zQPmPPT60AKo28Dn8acFxzSKNp5NOZeM0AMP+fpQu7+7Tlb9393+VVtQ1G30zT57u+kWKGIZYmgDF8csE8P3Jk1AadFx5kyjLbc8qv8AtHoK5Kw8Najd6Wl7a28Nq0YC6daTnKwgnmZwPvSdTzWxo9hdeJr2PWNdgMNlG2+xsnHI9JHH970Hau1ixmgDH8N+GrTR9OELhbm6cl5rmVctK56sf88VotYW2Sfs8P8A3zV4HC+tRM1AFMWFp/z6w/8AfI5/Sq8X9kS/aPKFoxt2KS7QP3ZAzg+nFae7/ZrzWCX7DdeLorrS7+5ju7tnVEhYiRPLHOfTjFAHc2SaZexl7QWksYOCyKDz6ZFWv7PtFT5baHr02CuX+HMIGmXM7WtxbTXE2+RJkKAHaAAoPYAAZ74rsGzQBAbC1/54Q4/3BR9jt+0ERPugqcA9TjHvS7h3waAKj2MbAjyIRxjIUcVyyeCZ95H/AAkGpAE5AAj4/wDHa7TcaVSM0AZWg+H49Jt2imupr5ic+bcBSR7cAVzXjqBB4w8GBIEAN1KCQo5/dHrXoQ5WuD8cMy+M/Bn/AF9Sj/yGaAOwSygVsCNPrsFS/ZolbCRR49doqQgufkGKegI4yKAIpre3A4iT/vkVB5Uef9UuP90VcdiD0pkmcdB+VAEL28WAfLU/hSGGHg+WPwFTGRiuDn8sUgbLYxj6mgCMW8WM7QPwpBHFn7oI+lWWJIxjI9qhYknAAFAETRrjKooFNdE4AQA1OEBB4NMcAsOaAI9kf/PMU1ooh1QflUrnPHT3rM13VLbSLCS7vmIhQYGOS5PQAdzQBlePnsW0B47u5lgjdlHlwDEk3+wO/Nc9pnhLULvTRdu8dhfsgjt4wMrZQk8hB/fI71reHtHu9S1FNe11QrgH7JadRbqe5/2z3rrWPGB0oAo6DpNro2nR2dmmEQY3Hqx7sT3J9a1o/wDVrVZdwNTj7ifWgCQkEYNVy2HxjipGAzkmomwDkmgCWM/NnBqNiVJ4BzT4ic8k0jMdxGRigA2Y+YAmnMTgdBUZY44Oaew+RcdTQApXO0nqe9D4ZkwwzSqc7R6U1kw69xQBJLuZfmGMelVX6YJ/OrkoG04JGaqSLkc9KAIlyG5oyd+acqYPNKU+brQBYsGzdRjvz/KtbFZViALqP15/ka1uaACsIjnr+FbtYmP/ANdADFHJ+b1rP1jU7XRbCa+1GdYbaMZZj/IeprS2+9ZWsaLY6z9nXUoFuEt5PNRWJ27h0JHegDzuTR9W+IYOpXjS6dp0TCTTrU/KXYdJJP6CuI1fz7L4hW6akYoLsWvkyIx+UjJbeCexxX0YiiJRtACgYwK8g8V6NZ/FHxLbwWcG3StPci41FVwZiP8Almh7jnk0AZEerWFzM0dnvupxjKwIWAHTg9Ky9b1HxCmrW+m6XpYivbkhY4rjmX3fAJAUe/rXvGi6LY6RZR2mn20cEUShVVFAwKo6B4TtNH1C+1APJc6hduWkuJiCwXso9APagDkdK+GQkt428TahNfS43OqEoob2wc4/nWjr3hOS9NnpelRwafpEgP22WEBZnA6IPr3Nd5tOKVVwRQBn6XptrpVjFaWMSxW8Y2IijoKt+UgbzCil8Y3Y5xT5OtIrUANpr7q5P4g+LW8HR2eoT2pm0x5fKunX70QP3WHtnOa3ND1my13T4r3S7lLi2kGQ6HP4fWgCLxDAt1ol/DOA0LwuGGM8YNeC/wBmSXmh2V1pypHe2THyt3AdVJG1vX/9VfRVxCJIXRhuDAgjivCdBcx/a4wMCO8nVfoHIGf8/wD1wBNK1GPVLWQBPLuYTsmhkHzI3uPSru/5Pm+9/nnFZGv211p1+2tafumWRQLyA9XQDqvuM9Kv2l5DfWUc9u26CQblJ4x9eKAHtjAYtktxkdqRvkIXsQMkjkfnRt42lQcHgd8ZpJkLnLcZyORjkD6f5/kAQ/8ALT731H4j8qeAA7s20jjGefTt+NSRhgT8vy8fjz/n/PWjqGraZZeV9ouEU44QHk+2B3oAtyWyfu3MEK8/3Bn8sVMGztATAX+Ed6wn17UL7amkaUxQn/X3Xyx4/DmmnQb28DLq2pzOhPzRQDYoGPugjBx0/KgDUn17TbQSCS4V3HBSEGRgfoKqf2pquoSCLStO8oZA8+6+6fbbwTVrTdJsrFNlnbRqQMFyuWI55J6n/wCv+A1wWb5l9Ov549f8/qAYv9jXEqMur6g04f70cRwn06Zxj3zV7SrGy0+BorK2jRM5JAye2TnrVv5l++q/Lz0xwAP8f/r+rk2p029eOue3+f8APABNEd7bgCqjHvmleM7slzv5/h4/z/n6RuzD5cFUOR069P8AP+eHNIqx4UNkZO7HHT6f5/kAZ/ipha6RLeplngKuvoTuA5/OvZdEumu9Nt5pAoaRA2F968o1W1TUdCvIZlDRmMk+xHI/UCu7+F+oXGqeBtIvLtVWWSHkqMZwcf0oA6sBjnBpj52EGnknODxTDnpQBByOAKcTt780rgjmkyM4xmgBpY9eopjsMcipmTaBxxUToCM9qAI1JK8UmCacpBU007QclsUALuA+tK33KwNc8V6No4P2u7XeDgpH87A/Qc1ympePr29VovDumuc8C5ufkjU+4+8fyoA9Dcr3NczrXjnQ9Mkkt2vFmuYzhoYcuwP0HNcHd22paoCNZ1ieTKkmGH5EweoB6ge+aamn2Gm2qtBHFFEg5ZxkjnuxoA0rnxxrOq5j0ewWxA6XF1k546BOtZV5p93fxbNZ1C5vAT80W7bGe5GB26VQm8VWUU3lWokvpgPuwqSM/UjFJHHr+o796xaTZ5+XjfNj+VAGkkdnpthyYLa3VQCT0H581RXxJbuGGmWtzeyLnDIhCHnH3sYqO18PWiTxz3skt5OpBDzHgEdflHB/KuhtkEUeyJESM9Ag247UAYwt9cv3V7qWLTrUn/UxDdJjH98cVYHh7TncS3ERvJOu+4O4r9BWuqt5C89gfQik/wBpflx1wPagB8ibcqCFA4AAA/pToo13D94VYN0xkHFI3zSHJy3XOOMipTEeCvz9R2/GgClcSrB4p8Oag7fNA7R+X0LbwF/T079q9sjQAA7TzXhXiC5tReaUPMWW4S7ixHHy2NwyxA545zXuiOwUDb1x1oAcTk805T83HSkUgt81OJ+bigCTJ7jrTgPYU0AnrThg9SeKAFf7mO2aBjadxHtUVzPFbW8k0zbYo1Lsx7AdTVaTUbFNOjv5rqKKzcKyyOcAhun86ALpYHHH5VI7nyyMYx3qJV74wuMjmodQvILKylubpxFBGu52Y8CgBL6/ttOsJbq9mSG3iGWdzgCuU0yzuvFF7HqusI0WlxtusbFuC3pLIP5Dt1pNPsrjxjdw6nq8TQ6NC2+zs3GDKR0lkH8h+JrslRFGAMAdhQAo6YyFHYYqRQFyajckdzj0xTkI78cUASoc5wc0xzg8ihACOaawweDigBV+bOelK3y5KjpQuPxHakkznI79qABgCQeopVT5SQeaYe27NSZI4GB60ABOE561GwwuT+VSgZGB+dNKZ4zQAisOmRz2PFOxhQQQPrSFenzdPbNPULtGQTnvQA9JGx8tcL473f8ACYeDve8k6+nlnj9K7vj+9t/CuE8dfN4t8G+YOl7Jj6+U2KAO7O7+HB+lOG4jpg1HH064qQcngsaAFQ/Oc0gJ5J6UKR5hz17U8ngk9aAIwTk9aDnBzSgnjGTSMemM0ARqWyQ4OO1NGMnnFSKeSD+FRyYwR3oATnGVBbB6CmE7mKdCfzpYhtzk5Paq+o3dvp1nJd3cixRRjLM3SgBmrahbaTYS3d7KEhjGST39vrXLaNpt14hv49a1yJooEO6xsn/gH/PRx/eP6U7S7G58UX0Wr6xEYdOiO6ysnHX0kcevoO1diASMD7ooAETA4IJ+lAXA7Z9xTTuHOSR+lDfMec/hQAhXIBPWpCuIUxnOT/Kmr94Z6VI/KoQO5/lQA1kBXNNCBhSljjFOXIGaAADHOenFQ7VMjHn3q1GAeSQBULAK5yMigBoVTwCBTpEAAK5obpwMHtRLloxjIPagAJIC0OeVJNMRsoueo9adtGVzjNAE7Z2luwqpK3HNXiR5ZBJqlMm4HHGKAGg/LnvTeCeTzSqoCZFM4LA0AW7Af6XF+P8AKtesqyINzFj3/ka1eaADvWJt5GOlbfYVjDjvQAhBGcU3kOOOKlUHPPSkbK/doAadvdc1DbWsdvGIra3iiiHRUAAH4VY3ZWgthfloAQKMfMcUxgc8kbfU0qg5zuYDv6U8jjqfrQBEASM0A7eT/OgEjnt9KQDJyf5UARTSqr/eX2zRvX5l3L5n64+lcP8AFzR57jR4NX01XOoaVILpVUn96i8shA6jFSeAbweIr258UrE0cNxElvbqwOdi/eOPdifyFAGx400WPxB4X1HTJQCLiFlGezdQfzFfGvhjxZrngDXplspnURSFJrZz8j4JGCPX3r7ndd7/AC/SvDvFnwPTxB401XU5LoW9pOu+NIx8xlI5JHYZ5/GgD0D4deMrXxton2+1t5YGQ7JUkGMN7HoRXnOuRDSviPqtrJbyR296qT2xVfkJC/Nz2OTn866j4S655CTeEdWt4rTWNMAQqgCrPH2cevFdZ4u0KPW9LeFCsd2vzQz45jYdOaAPMjtPBVsN1XjnOK5q63+Hbg3I50uSTEqD/lkT/EPbrx9K3YjcwPJYaku3UYOGA4D9MsPrVloku7OeG4USROpBRxweKAKN1e2VlGkl7cRwxE7gzHqKxpPEbXcwh0jT5puceZN+7i6dmwf5f4CHwbpuli0kdrXN1FNJCzsxPIPoTiujO1RgoFA/hA9Mf5/GgDnk0zVb2TOpaq4jBz5NsvlkD03d8cf5NX9P0iwsXzbWqCVM5lkGXOfUmtBEGQ2fu9P5UNyg+7yOevPAoAcykAKGG0joO9BJXYRk5JOKQKpVDuJIB49Kli+UgEZwen+TQAsf+3u+Yex7HHapvubgm7+LsOueKan+s3P/APWPX0qzmCBHmnlVIgCWJ7DJoAYxDKrSfeXHuOwH86aPnx029f5dayr3xHpltEJUFzcKx2o0MZZT6cjisjVtW8RbILkW8Fjp5YKzcyyAHo2OMdqAOxJxC7P8iBcAtj0FZcWuWkx26dFPqL/3bddxz6c4qo2h2up2pF/f3V7HIPlJcbAeORj3/wA+vefD7WlW6GhX1tClxbxb4pkQBZkGBn/e6cUAY1poHijWY+IV0a0IOHfDyt1+UqeB1657V6R4S0ePw7oltpsEkk0UC7VLnpWsPSl/3aABn3PwRimnGGODSseDuGOaikdSGycKBQAq8r81N+7+dYmseJNK0fZ/aF9BFuBwjNyfoK5G++Is1zI0OgaXNeOD/rJf3cR/4Fg80Aej5z+dZOseINN0oYvrtIsnGOp/IV53PdeItViYajqSWyMeEtRgqMg4znr/AI/nVsdHs7a7+1upnuGGGuJm3P8AnQBtah8RJGla30TS5rtmUbZ5PkiDZPBPWsC+k1zVpZDqeqskJPNvbYCgdxu61De+JNLsCyPcI0+ceVHy3scf5/wo/wBp6zqOTpen/ZoG+Uz3WQ4PqE7igDQttJsbCJXSNVZjkzTHc/vljz+tRXev6fau0cchuJlx+7iBYt9COKqtor3UarrV/cXK5+ZI8Ijdeq9xWjbadZ2SCOxgjgVf+ea4B+tAGMbrW9Td1t4k0q24xJMMy/goyCOe9JF4ciIL6pez38h5Jdiqn6oDg10QG7cv3v0qF1x90ev+c0AR29vBagLaQpGuBwihRVks23rk5PU+v40xUYMrBVB9+eKkYlUU4G7uD60AQ7vn+X+Hue/bj8qkRf8APHr6VTv9RtbS4iiuJB578iNRlm+gFVjql9d6vb6VpOn7ruX5sz5URp13n2/KgDosrs+dt2fx49KoanrWnadgXVyi7ztVN/JPYVq3fhcafpU2oeKNccQpkt9nBjGOwA9f51U8G+D4tb1Ea7qNilppyN/odoyDfJjpJKe57gUARWkWuanK0Ol6U6IeRcXR2ofXpzWdqWh6pNqT6Pa6k99qcwBkKfLFZKTySRyT6D2r1zX4r99Hlh0WSKG6cBVkk6IO5x3NR+FPDlt4fsTDCTJNId8078vK56kmgBfCvhbT9CsbdIYlluY1CtcyAGRz3OcZrpKai4FOoAUfpUqfXioQPm6cVMn38Z4oAl+YDqDUYzk54qQ4Hekb25+tAFLXIpJdEvY4l3ySQuqqOpJB4rlNRt7258AnSRptx5qW0UQyVwzDGe/bFd19fwxUN7dQ2NrJcXUiRQxgs7ucAAd6AIbu7isbJri5kWGCJNzs5wAAPWuT06CfxperqGoxNDoULBrW2YYNww/5aOPT0H40y1tbjxteR3moRvDoELbre2YYNyR0dx/d9B+Nd3HHtjAChRjAAPSgB0ZCRBUTj2FAII6Y96ahOPmOFFKuQcE5HagBpUggKODTtvYUPJ+8IHSkB5G3GaAJgpAGccUwj5+n508epxmo3Yq4Jxg0AJnawyR+FLuyRtGfrRkt93ge9Nb5TnGaAFIDHJOPanLht2MU3fnAwB9KcrgAjPNADwcZ9qUMDngc1DhvTOaNwU8gnFAEpxjijPIwKOcDHSgnngUAK43VxHjZf+Ks8Hf9fkh/KNq7kHcq8Dca4fx3j/hKvBy9/tkmP+/bUAdrGhLZ6rVlFA6/mKgicgEnJ9gKerbgcYA+tADhjmlyAevWhdm8Ckk2BvrQAiqeqtxSOAOCeT6UoUfhUihew5FAFVkJOD09acAAPlPHrSzPkccVRvLyGztJLq6kWG3jUlnJwAKAHX95BY28tzdzLDDGNzuxwAK4vT7e48YahFqeqRNHo0TBrS1fIMx7SuPT0H40+wtZ/G16t9fpJD4fhbNvbONpuSOjuP7voPxrtYkSMkJgADAA7UALtwoUYGOOKXb8uCePfigDJ6fSlQMD0oAjJwCobPtTVJ3Hk/4VZ8rJJPPTj0p5gCknigCshGQORUgXAB9Sf5UrQ8hsVJtBVck9f6UAQbeDjNI2AMYOan24zionAyWJoAWIrtPHNNycsRikjAcnnBzQuMsB2oAaTv7dakbIQKelRr+IFSOcqO9AERAIWlfAfGKB0BHrUjjJUgDFAEp+50NVJiQhJBrRyPK5AxiqFzgp0oAjUjYBxSAAGkjGV5pVwSRQBZsRi5jP1/ka1OazLL/j4j/H+VadAC9qxc8c81tHpWArnjIoAtLyvHHFMxj5TjJpxkJQgVFyD6GgB4Bz7e9OC+pAA61G7jOCTg0M3HXHpQBJjAyGyDTQdvXpTN2E2nk0pbdHwtAEeOc9qcM9abvHSk8zt3oA5rxkfEMr29roUFn5E4aO5mncgxg9Cq9+9bOhaXFo+kW1hAcxQxhBx1wOtW9u1+akzxQBGThsYwPWmyY7GnErnDdKRyAOB8tAHnPxQ8N3F41v4g8P/u9f04F4yP8Alsg6ofXjOK3PAnia28WaFFf23ySj5J4T1icdVNdG8YYZPAryXxZaz/D/AMWDxTpUbNo14wTU7ZBwhz/rQKAOl+JfhyfVrKK70oIup2rBkBOPMXupPpXD6fcJdqyANHcJ8ssL8Mje+D/n9a9isru31G0iurSRZYZVDqw5BFcF4+0G4t9Si17SoGkWJClzbxcNIpP3h6kc9fWgDzrwupsdQ1rTbiP96tz9o3DldsnIxW7J85Zt33eg/wA/5/rkxSbfG95MrJLHqVukqn/nmI+Cp9/mrcdFRGkZtq4OS5xjr3oArheG3/e/u/5/zx+UjDj/AAzwMA/1P51Qu9b061VvMuA7qTlY8uaqWmparrFuJdPiis7ZztSSbmXPc7elAGuskdvA8lxII41xks+Mc+ufpWeNesjIsdqz3UueFiQtlh23Yx/n8KwbGyNxq97Z+JbmSecMDb78pHMvf5BwccdfSuw0qG3sHjW0gihTIyIlAGMjt60AQpY+Ib/xDa2M9umjwXKM0TOwaTK469Rzn9K7nTPhxZGSKTWriXUXjO5VdsKD9BgH8aj8XXf2XX/Cd+EMkM04tsg4IZ8EcHtgGvQ1ccHG3PagDB1nwtpl9o72H2aOKIncpjUAqwOQR9Dj8q83uLOfRL86ZqytKJOILhvuzr3GOzCvZ3GR/wDrrA8V6Bba7p3lzt5U8R3wzDrG3rQB4pDnw7dSRXTGXRpiXWVefJb0PoOeOv8Ajv39sl5EkitsmGGjmQnIOM/0/X86atb363ug6k0Ul0A8MgR+HUfxcf54/KpYXE+izxaXq++VGAFtdYwpH9w8dR/n2APUvBniUagklnftGuowcFc4Mi9mH9a09Y8UaPpL+Vd30SXGAwhzlyD3x19a8q15LGW3kVtQSyv1GIpkcCRepxjgkf15qj4SOmXGlC8mij+0RZW4edi7RkAg5ZucfpQB3Oo/ECSR3i0bSbu5cAjzJVEaD3+bGe3T1rn7298Q6xAyajfLZl8j/Q1II+m79fpUM/iLS4wBHcC4k5ASIZ5HbIH+f0NFtR1vU43NlYpp8eB+8ujhyPVQuQfXn/8AWAWLTRrGzDyFGllYZaSdixPQ556UjeINMhKx27/aMHJS2HmYPodtU08PvcvnVdQuLxeqp/qwh/4D1rYsdPtbRAtrbRJ8vUKAfxOKAMubUdWvHf8AsrTvJRs4ubslV9/kzn/9VVW0e8vAi6rqM7xkfvIYPljbk5BzyR+NdIeV3OBt5/L8v8/ybt3fex5f0PXNAFK006wsEVLS1iQDphQTj61PIx75x6Z68cU/bt+YnI9h1/z/AJ92yAlgFJOOvp/n/P0AI5Vw67R1/wAml+UfL8y8/X61DcXVrZybbidUkPzbP4iPYYyazZNbkuNSg0zS7Ka4v7gkrkbVRf7zA84oA1vvdI2Xr3z/AJ7VRvL+z0+4FvJcK11gEwocvg9OK038K3tvay33iPWhaW8Sb3W14Tj03DI+lVPAPhGDVtTXxBLZ/Z9Phf8A0GGX5pH7ea5POTjgdqAG2q6pqu5NL0140yF8+6UoqH12nBb8KpWWm6nq/if+zbTVi9pbHOozwriMN/zzTPc9/SvQfGQ1e8Nto2iI8K3WftF9jAgj77f9o9q1tA0Kz0HTIrLT4gkSck92Y9ST3JoA4/VodI8LPHpvhzTo7rX7w7kU87R08xz2Uc10ngzw1FodvLNPIbrU7o77q5ccufQegHYVswafaLfSXfkRLdOoUzbfmIHbNXduzvmgChqmi2WrzWj38RlW2k81EJ+Xd2JHfHvWiEUY2gKo4xSA9qd2xQAoIJqaNciq6j5qsxZxQBNnYOeadGd3SmDgc80iHB9BQBP0p4GTUSnJqZeKAHFc4YZJoDAZLKcU4OeTg4qpqV9BYWsl1dyrFDGpZmY4AFAEl5eW9naTXN3MsMUalmduFArkbK2ufGlyt5qSPDoEbBra1bhrkjpJIP7vov4mks7W58Y3SahqsLwaHE262s34M5B4kkHp6L+NdtGixoFQAADAA7UAKqxxoqRrtUDAxSuRtyGoA3DlulLkEYAzQARx705JJ9aURY9M/WnRrhPmzmkwTxnH1FAEMoIY4Ipg7EjmrEiD0FIqADnmgAjyB2xTWB3fKV4qVVOQBmoJd3ncUAKg+YgH86RywODkj2qUgnHJGai2lH4OfrQA18FxgEU+JQNxPJ9qkKMRuxilQAZHIP0oAYeo5Iz6VG65Ocg/UVYYe5FO25XJI/GgCJeU6UJlVZutSqoA61y/xEnkttBSaCd4nW6gG9WwcGVQf0oA6hF9cBq4bxzu/wCEr8HH/p+k/wDRTUeOL0vGk2n6my3UC5aKJsBgGXJ92Hp7mneM23+JvBjEf8vjk594XoA7dCVBA708Rbfm9s4piAk5/GpucmgBiffy1JOBsPzYpxYKMd6iYlvlZeKAHrJlQByQMmlV2+9txnjNRxjy05B3egqK9vobG1muLmQRwRjcWbtQAuo3sFhayXN3IiQRrl3dsAVxFrb3Pje7S91GNodAibfa2xGGuCDxJJ/s+g/E0ltbz+NtQW/1GOSDQIW3W1o/BuD2kcencD8a7qNEiRUX5RjgAYAoAaqhU2LhQBjHpSMVBAz+VKQpJP8AOo2wpxigCXaBzmnpxzmolORgc/WngcYBoAlyM55Bp4kDHHU+9Qhj07UhyvPGKAJN43EA4oZxjsQDVbd8/AB5qYNiJiQOTQAEqMkDOagY+nFWA2MZAqFsK5ZsYoAaq7JCc5FIMBj1FKJFJ+XrS5LEkYz60ANY4UYpGOQMUjsQD0x9KXcPrmgBSSI//rUqtnGev0pCMgdaHGCADQBc/gOOtUJM4OKuchfw61VkGFJoAjAORQ2FlAFCk4BoAyxJzQBZtAftcZHTn+RrVyKyrLP2mP8AH+RrT2+9ADqwD2+tb9YB7fWgCf8AhyQM/WoXOMHj86eDleBxTFHIPH5UAO3ZAJFMZiWwAKVgrcA4NNUMG69KAHlDgZIzT8hQM5z9KjaQ5GDzUuSQCelADUjBJwevrTTGd49qUsCcYwaUsG44zQAxyDIM9KOcnnge1BUHggbqeFOzBI4oAgkxkZ4NKRkDnj0pXVS3zD8aOFHA49aAGHoAvHPeq2o2EN5ZzW10gkilUq6sOoq0OV3Ajn+VIG4A/AUAeV+BbTUvBviubwvNHPcaFcbp9PucEiEd42Pb2r1Dao70519h+dAHsDQB5H4g+G2o/wDCVjUtAuYooJA4lWZc+WWwcr+IrTs/hZBPiTxHqE98VHNuh2Qn6ryG7f5xXpgHtRQB4nqGix+DtbGnW8Sxadctut3PUeqn/P8A9fm5Ym8OXzDZu0y5kLscZMDk8kn0Ne9+I9Es9f02Syvo9yPyrA4ZD2IPYg15Ddwz2t9qGha6oOE/dTH/AJeEI6j3HQ+9AFXVNPttVsjHjMhy8Uy8FWxlSCOlVPDV61xGbS+2pqVq22VduO/B+h9f/wBdNs5n0O+g0u7fNpN8ltN34/gPvxV7XdIF3B9psnMOqQKGicHhwOisO4oA6vx5If8AhDtK1lEONHuI7lo/74HHXt96uuvPFujWUCyXl5EkmxWKA5IyK8ctZ77xPoxstW1BoYh8s9jbjZt77Wz1HHtWvYaXpmmWT+VHFDHH8zGRun5/Q0AdDqPxC1C9kaHw9pEqoBlp7z92oHqnB3Vj3DazqoP9papKkRALRWuYjnpncOaoy+KtKVsQzveN/dtkMmPyqOyvNb1JWK28Olp0UykSsR644wfY0AP1HwzZJB9qsVW1v4gXS4J+d2/2ieWJ5zmq1jqdn4p8G3krD/SooXLxocFHUEhgfwB/zxYbQoJ3VtUurnUOMmJ3xFk+wq1qGlRpHHeaXGsN5CuwIhwkid0YDqOc/X9QDN8I6TYyaJpt7NaxXN3JGrvPL875xzyef/1VHFo9leeKtQW8SRCkSv5QkKxuMnqo4PaqPhDXo7Gxu7ea3vGumu5SkCQsSoJyMjsORW5osWoXOty6lqVrFaKYRFGiyByevJ4BHagDUtNPtLNAtlBDbov8KIB6/wCf84Mpj4dgwIOOev8An/P4yqOHOMA5649/8/54GAwNuAfQ0AV0i/2trfSlMRGF3NtH5H/P+cU26uobOFpLqZIkHBZjnFVF1Sa9CxaHZy38zttDIdsQ/wB5+cd+1AFspuj/APrD054/Af56QSTw2q5uSiYzxnnHsPxqr4kXVtMtraCaWIaxeHbBp9uN7EnuX7AeuP8A6/TeC/AtvpVnFc6yRf6uw3PPLyU/2F9hQByNzqheFv7PtJbnC7jJ92OP0LE9qi8G6brnixpry5nWx0fBSPy1DGZh/EpIyF4/Guu1LRb7xNrL2d1E1n4es2+ZM4a9brjjog/Wu3hgSCFIo0VI0GFVBgAUAec6ppmkeDo0t9I09tS1+8yLcTt5jk9CxJ+6vet3wX4WXQ4pbu9cXOq3R3XFwR/46voo9K6ZraFrpbho0M6jaHx8wHpn0qYo3196AOZ8SeHIte1Gye+uHNhbHe1mBhJX7FvUD0roIFSJQqgKAMAAcYpWT5vm4NG3/aoAeRjBFMWQlwpAA9adjCAjmmrGDjI5oAeQAeoNSjDYpEAB/hp68jtQAhXJ4pJMbfel4zwaCoAOaAEUA9Mg1PExRcdahjA38HNTRqN2TQBLG3y/Mv505umaD0qjrZvxpsn9kxxvdn5U8xtqrnjcfp1xQBU1PxFFZX0NlaW8l9fyDd5MJA2L3ZieAKyz4yvxq66evh+7kuynmFUmjIRfVueM1PDod1o+kSjSwlxrNyR513cdyern2HZanh0C80vRnh0WVJNSuXHn3tzy2T1fHfHYcUAU18Zai+qHT08PXTXATe4W4jIQdtxB4zXO32qarrPjFLO/0Oae2tlEqWcU6FQc8NKc4+grt30a70jRfs+hbH1CdwJbmdsncfvSH1PtUZ0K70zRjaaGwN/cyD7ReznL8/ekPqfQdKAM9PGOpSao2mW/h2Z7iJN0gS4TanPAJzgE+lXdB8WXmpeIpdIk0eWIwx75phKrpH6Akdz6U6fw/d6Xo6WXh1lS5ncCe8mOXGfvSf7TelbXh7RrbRNNS2tUz/E8jHLyMerMe5oA0tvyYFPUED19xSp82Qvy0xyykY5oAkVCVyOgo6c9RSxEbGPINKAGUE0ARtywxkA09Au4ZJI7UONucYINMG7IHUUAPPQ7TzmkYfMSQc0iKxcsSFHTilbcG5ORQAmNxwDik2joeT609uFG7nIpIlBYA4FACFQWGO1PCnkcA+tJKNhG3DD2NDMckYwMUANIx1BJ9aMepOKkRS4yGpG64HWgCNqZPb291FsmhSVc5w65GalCndinYYHqfyoAq/YLVUjVbSLap3ACMYB9RXJeNR/xUvhAqOPtzDH/AGyau5zwOK4rxx/yM/hBuOb9h/5CfigDso3KpUuf++qQBapat9uawuF0zyhdshERlPy7vegDF8SeIjZXkWn6VCL7VpTlYAcKq92dv4RXO3firxLFrNvpkOk2E17Jy6R3TERL/eY7eBW7p3hm40jRrtrGZLjXrkZlvLj+Jz/QdhSWfhq40nRJ49LnRtXuDulvZ13F2J5b8BnAoAxZvFPiZdYj0230mxnusbpdl2xWEernZxn0rB1658Rav4vsdOubGyureH969pFcNtU9nlO3p6Cu/i8Py6T4fnttGlT+0pvme6uMsXc4y7euB0FV7Tw7PpehT22kTKNUm5ku7hdxdj1c+vfAoAxk8S+I11pNItdL06eZU3StHctsgXtuO3qfSpNN8Ta7c+KxpMthZPFGC1zPBMzeSOwOVHzH0rYXwzcaZ4dlstCufKvp2Bnu5RudifvP/venatDw9o9roeni3tFY87ndjlnY9Sx7mgDUCZAzTSqkAU9SOtRE/PxQA4rgfLSoTk56UYHTODTnCLjJ5oARzwMdKjXG4jdThn8KQYLkHrQA1R84AJ61YZQseDzzUQGOcd6mJBQn3oAiJ3AgVC6knBBxUj7Ryp5ppI7ZNADBhXHHWg53HGcUrKAetAZgwUdKAIwxII7VImCuMdaQLkHmlA+X6UAKT8oHOaXgLnuT3oBIA9PWmMQpHBIz1oAu5Hljr0qnKuVO2rkYBjNVZOAcDigCBSSuMU7mlQdwMU1t4PbFAFqywZk/H+RrS/CszT/9enHr/I1qYoAKwj3rdrnw27O3+XJoAkXLJzTS2ZqkydgwMZFRMpznjk5oAWR8DPNKrYUMOaQDrnNAA6UAOwGOSADSnIHA5pdueAfxFC4BwSaAIy2CMjk+lHzFjwaMDccZpGVgQwwT35oAAG835+T71J/ERj8qQsCTnOaQFSDkGgBDgHntTZOnHORTX4PrmnqQR6YFADQQqjOM1GckjGMU5sFRnGaa7bE4xQArtS71x6VlX+s2Nghe+uoYlHq4zXGah8T7eZZU8OWc1+RgLcY2wn15PPH0oA9JyCvXGKxdV8T6RpRdb2/gV06qHBb8hXlerax4n1mPybu+TT7V+HSBctID6PwVrNi0Syg/eMvmOgwXnO9j6fMee/X3oA7K/wDimt1OYfDGnS3qnAN1LmONDnuGGTx6VyHiqXWfE8kMl3d2trPauZofIXcc4+6Sex4qDUPEen6dNsuLkGTgLHGCxJ7Diq7ahq9y7mysI7VGAAlujhwfXaM/r6UALZy2/iLT5bbUUMN5C22RB1jk7EfjzUWm6nqy3t1pKrDcXVmQHvJGwHBHHTv/AJ9qpzaFqdo8mrwagbnWYzkBU2IwwMrgHnp19qdpE8d34tea1f8Ad3cIa4jI+YOhA/DgmgBt1Z6lZ+JLacalm4uwVkREAUADrxyT3zWqnh5Llydau5791HyAnYqc/wCzjI+tR+MZoft2h7JP3wvlUYPJU5BBHpW8qHzPM3LwSRjr16GgAgjtbbmGCJMcDau3H+f8+1iM7l+cqxYevPFRkFV5UHaMDB5zToot7Bm4DAY28fSgCxGvybvl28Hn/Pt/noVSVlRdzL6f55/z796txdQW0QE8igAjK55wfYVDDqX2yCSbTbKeSCEHfO6+XFGcZ+Ykgn8AaAL8apG5dUQE5G8IM/5/zz3ZPd21s4FzLChcn5SeTyemTzWT4Ts/EvjNXnW4TS9KyQs8SbzcHplNw+715PXNdjdaH4Y8D6V9tuonuJiQEErmWSST0QH1oA43XPFcVjIq21pdXLtIqLlCitk4G1iMMckcD+nHUReFfEF7Hi9vobFWB5gGWAPueh/D/wCtoeFvDtzqOpJr/iGNFukGbSyA+S0U/wA3POTXT+ILGbUtJuLS2u5LKSZdvnRgFlHfGe+KAPJG8N2uoapNo3h+Sa4uAcajq0rZCD+4o6F/p0r1HTNGt9B0MWOiwRoIoyIw3G5sdWPXr3rGTUvDPgbSY7OW9t7aNRkhny7sepPckmsZ/iNNqTiLwtoF/qbdpnXyovruP+FAE5sR4K0jU/FGsLJq2tNH5lxInG1O6pnoozXF/wDDQWkfw6Pd/wDfa5/nXTXvh/xp4ptZYde1O10uymUq1vZR73YHszt/SvHfBXwc1XWtVmOo5stLhlZDIww0mDj5R/WgD07w/wDGQ+Ib9bTR/Dl/cSseSJAAo9Se1erruMaPIpRyvIznFZPhfw3pnhnTlstKtUiUD5nx8zH1J71tHtQADGepxQx9iRS4z1OBStgLw1ADcgjJpjfMOBStkjAoU7RzQAoGRzSlsAUucjAocYANACEc1JuIHQVBxu4BqbJC8YoAUYPegg9T09KZExY+1SN0wAaAD7rZGAKnjcYz1qEjnBqWIYGSMCgCwoVlznFIM54OaAcjjmhVwemKAJoyp59PxqQMNwI71BEoBIPep2KqVoAkUn+8TT8Z703fx0ApwIPvQA8AY6kmkZhkDkHFMLnkYPSlVSQDg/yoAdglcr0pQRt6Gkxwc5pDnbwAKAJgxxxn6UiMOjce1NjZjxxmnkN24PrigBGGGJBwKTkyj5scUjdTxTY5Nx5Xp6UAPLN0PTPallY4wvOaAwPBAwTxSSAFhjtQAzcemafvzgFsGmZIbIUY9qXk4yCPrQA5gSQAD+BpygknPT3pCVOBnpQrgEjBzQAElDxSBiW4HOKC5LYJOMdKSQj+HPTmgBAx3ZqQthST1psYJBFSOB5eDQBHvb06Vxnjt9viPwduXP8AxMG/9FPXaIu77uP15NcL4+48R+Dwf+gif/RbcUAdyAWxxxing4IXv7UR5AJ6Cnxrkk4wcUAKBkZNQyDP0zUpyTgdPrTZV2igCMOAMdPfNOQ/MTnJ9aj2KepyKkAG1fQ+1ACEEt16+tImBnPH0pWwh65xUXLHgE/SgBxYkn0prgY460Nzwc59xTgvHOPzoAhwQc5yaV8nHTFK2FBzTOTj0oAF3A8Gljx5hZgd1MLcYx+NPQZ6nigBzEhhg8VK7fuTg96gYYxg5qQ5WMg55I6UARjbzg80hyCoFKCCp4OaYuXxxQA8x5K4NIdu8jPNKvD80gIWTBHWgBFOFOaVceXg0gIJwDTm2jGBnNABGAI92evanspKDIH0pDyFAAFLIxwD0+lAEpYBdoXHFQMf3XAzVkKGjLd8VS52kHmgBEUheaV+lIhOKRic9DQBasT++T8f5GtOsqwP79B7n+RrV5oAK59vl3fL+ldBWD8xX60AIkpYYH5U4HJwR+NRN8vBH41Ig44PfpQA/YMZDE0nyqRwadgAcHBpCcAFqAAOpJAo6gE9fpRHjJyBjrThgckDBoAjww56k+lOxu2+opudxO35aTOCPUd6AAjDc0q8HGPxpGyxy2M0AkLtPJ9qAEb5jzSY2UDcT6UvzGgCEq33uvpivMfjhreraRoluNM8yOKWYLPJDxIq/wCy3YmvUW/H+nWvPfjImzQ7G9lTfZ2l2styT/CmCM+/UUAcLYadYXNrFcrK9+XUEzykSM3Hc4p19q+mWC4u7qGJj/yzUjJwOgH6Vj3elovir7BBeXFtpl1b/aI7W3kwhx9/PHGeOmK0bbSbGzyIrRWIP3mBcj8/8/yoAzn1zVLxtmkaTItvkATXZ2H/AL5NDaPd6iVOsXzyIP8AljbEpGwH95ec10AVnwyYKDuf5/Smqm45y3y+oHOAP/r/AJfkAVdPs7O0TbY2sUeeuFANWZpGGOAW9+c0saBPlRFXb7UrRhzk7fbuOcUAMjV9/wA/Y8f/AK6xtV8PJeaql5Z3M1jMQRM1udrSKcHqPw5rcZ4LYP5skceR0YgdCen51zt14vtf7QGn6TC9/eFjHj7gJByTuI5/z3OSAaen6BYWUiP5LTXAJZpZzvc++SK0bi5tbCLzbu4jijbdgucdM1nWljq+p3UR1HUYtMskI83yRh1x/tHis1dF0rxH470iKK1nTw8GcLcOzf6a6855/hPtQBu29/c6kCNB06a+kxlZSpEL89mwefwpviix1KwtLa2v7of2hegJDp9oCZXJ7b8jaB3Ney3UT2GmTJpVvF5qRkQwn5FZscDP1rA8H+D3sbqTWNdmW91+45kmPKwj+5GOw/nQBl/D/wCHsGlaUsmvJHfapL8zySgP5ef4Ax5OPWrWseHdS8Ua09lqSiz8L25GYYnw16w5w2OiD0ruWXAxTcfWgCGOGG0t44YlWGGMbVVRhVFcp4p8YeEtLeP+1by2lurdt0aLiSRW9QB3rp9WsINU064srssIJ0KPtYqcH0I6VhaB4F8O6EQ1hpVuH7yOu9/rk80AcwfHmu60NvhLwtcyR/w3V83kx49cdTQPCXjHXcHxF4l+xwN1ttOTZ+G8816ZhVUKqgL9KPm7UAcNpHw38OaS4f7CLq47z3TGVyfq2a62GKOJAkaqqjgBRgVYkGetROP7tADnxjcDUeFPzEc0owOozTHOTgCgBeK5P4jXWoad4auNS0y9FvJZ/vWRlBWVQeVJPTv0rqe+P4f61j6zoMGq3IkvJp2gEZT7OG/dknPzEdyMmgCt4LbUrqzOo6jfpcRXiJLDCkYVYQRnAPfr1rocDndWT4V0OHQdIisreWaZIhgPK+446AegAHatZiQOKADp16djTcgHnr6UbjnkU7FACqRj3pcgrzSYOMipFZQmMD8qAI+vYECnj5l2gUcAkikzjnGc0ASqoVcACkPt1pFcKORijPPagCQY/i60FsHGeKAhanOvHJoAlR8DPFSbuhJ61X2sqg54qTccrgUATgAnipGU4APJqJRgjJ4qbJBGBz2oAevKgHg1KPujJ5qFSSe2akHB45/GgBCr7jnAyKmjG09D+FNwSMtinIWBoAa7HHH60Id/IP1pXGQcZ/CjYccdBQAqjbypAz0p4LEA5FMiTO7Bpyt2P60ANIIY80JncOoJpZhyOwpuCMHHNAEqxDa3H50wgDGTgmnx9yc80kyhyCM0ARMcHbxSuDkEE4xTH+UgkfjT2GVwCTQAwN8oJ+lT5GOPzqBwFTHU06Jd3U49qAHNjOV9O9Nj+6MkE09lIUtgbcVHCMjqQPTFAD0BL85H0NKW5IHSnqh5x0601iADxigAjKoDz+lcR49KnxB4PLbT/wATEjn/AK5vzXbj/I9a4f4gLu8QeENq/wDMRP8A6KegDvFPyZyWpdwJHO2oY1Kp85/KpVUBcqT+NACtgHrnNDhsYIpV5PQk0rqwGMZHrmgCLC7eetIrH04pG3rgjNPDDHzYzQA0MCfu496azYBzS7cvuVcL9aRyD04FAEPUjNOJG7nOB6U6VFyNopjkjjJ6UAUby3up7iOS3vPIhX70flBt349qtcbcjr06cGpQm6P1PqTQoAUKevvQBC8YKg06MkdADT3B28daaEIHqKAEZh1A5zUyn90+Qc1CSoxtHepCcxsRQAwAt2xTclSelPBO05JApjAEkg5oAcpJfkCh/vYI59acEbcOKdIvYenWgCFOhwKUP8v3eKRcgEU9U+XpxQA0MxBx60r5K8dqRQOccc0rgkcDFAE5P7vK+lVCSYzniruC0PHHFU3TaM7qAIo8getK/wBcGlHIzQx9eaAJ9PObhSR6/wAq1sisnT+LlRjuf5VrUAFYm75W6itusaMcnigCID8frQgKvzip8DJ6r7UhG08c+9ADG55z+FJs3gEHAp+MHORn0NK3UAfpQBGqc5zn6U8Jx1xRg55OKVxhQwOTQBDt2tx39qUgdhz3OaeAf4uM00rgfKCc+1AEbK3U9D2peqEYOalkJOMjpQ+QOBQBAMk43GnZzgrjI9TTdvzHcTS7cqR29aAGvmvNvjTqcMnhW70KINLqd6mEhQZKqCCXb0UAHmu48Qy6hbaRO+kW4ub0gLEjtgZJxk+w61z/AIU8JppkNzd6w4v9XvRuu53GQP8AYX0UelAHkElylzqvhzU7UKVntmhYMMHHyj88iugYLzx06+gHb+n+enKeKZIbPxJaQaQJJNMtr1IY7lV/dLknfGPXGOo9TWhrXiq0tpltbOOTULqWTyhHEvG4+v8A9bNAG88X3sdGxzxnrVe6C20O6WdY+h+bA4wOf5Vrw+Fdem097nUry10mAKS2QHIH44ArF8HeALHxJrq6mzXs3hy3OIftcrObxx/GAeie3egCpb3r3kssGi2c+pTqfn8tdqr75bApvh/T/EfiXXm062lgtbG1YLd3USh9rf3FzwT9Oldx8VZ7zRPDD22g262dkqE3FxEQhRegVf8AaYnGad4Fu5fD2pad4bvILSOO5tjc27wAjJGC4bPU85z3oAg1jQfDXgy3WZLSbUNZumC28EjmRppPQA8AcnJ6Vwei6OumeIdUF/Gg1tis9wY8bI/M+YIvoBivoQ2VrJdRXD28bTxAiN2UFkz1we2a8g8Zwwad8Srp2Z2k1G3RiNvCeWMf1oAzNU0wastrBPPIlmJd80KtgTAdifSu18cfZbK18N6haxqtjbXKRBY+AN5CjHtXNMYuMBvbn27fn/nv0+v2w1H4deYTtFk63hH94RtvI/EDFAE3xH+INt4K1bQ4r6MGC9ZhK3eNBjDfmf0rurO5iuYI5bdw8TgMrIchh6ivlz4/Rat4q1iHUbHT7ptJtbFJPOKYVQw3Hk8dxXp3wB0/xJpfheOPWZoJdNlQS2eJCzoDzj0xQB618nbJPvUbk+ooDjpyTQygcggH3oAYTuyCRSKSFJNNfGeDQWVl47UALnNGaZuFG8etAEb5z96kHTrTJXGaiLigCwWGCM1ArjNDyDGBUJcZzQBPnk0dqiWTmnhxg0AOB+lD8j2pu7joKjyWPLUASEHZgdqWI4GTg/WmEfLhXFALY+8OKAJwck8Dmhl4wTzmoUBH0qRTuB479aAHg9Q2KciZ6HNJt54anqCCTwBigBrqr4GDmnlQMcU7IAzxSqpYZPFADkz9BTkHODg0i8HGaeYxnINADwB0I4p2BwMUAYXrk04EDANAChQO2RUh4I45puMnrxUyjGCSDQA5W+XBGfekA2kDGacwwhIILfSmRuQDvGTQA8ryTu5x0pUUkHkU0MCvOPxqVBuXJ4FACqCMgGgKf72KBnPAJpTjAJJoAjXhiM1IoAPJGajUF2JwQKVUZc+tAD2Qd+fSmjIcc4NOYsSPWmAc9DmgCYZKkA5PrTGU59TToycbcHPrQ4YN0oAhK5GGFSJjHOR9KYAyNu6/Wnys2BgAcdaAGuADk9DTo0XvwKidcqOcGpIicHFACZBbv+dKV446elNIGcljn0pMl3IGVoAk8sEdcUOoCZwSaCoHf8aRyQPm/CgBCvRun864rx2rf8JB4RZf+gjz3/5ZvXbA/wB4VxnxAVf7e8H7W/5iX5/u3oA7f5eBjp2xUKl/PLc49CacWbkkc/WnKDtBPf0FAE27JJ6U1nYt8uMd6aQQ2MnFKwYcHGaAG8ljmjGDQuN2OfzpXDduKAAZ5yBiomyN2cAVJ2wzZqBWHmEKcmgBCScjGajxyQBz9anfceBnNRAbT6PQAseV45A71Lzu5yfSmDdg45P8qkjyU5OMUANZcYPWm4BBYCnPtJOQT9KOmAKAKwY7sBcCp1yY2GBUb8HkY5p8bHEgH60AI2OhFICATtpofLEMBSjBzgkGgB6sQ/XmkZxng0cbwO/rSOBu96AG7uCAeM04ORHTO2RUgGYx60ARDPUU9yWQZ4prBse1DN+7wTQBYViE2j0qqSCrZ5NWUwYvqKqbMA0AMQ9utOY9ulG0D60p6c80AT6ec3K8evP4VrZFZNhxcoPr/KtbFABWI3X5W/KtusItwPlx7UATqBtyW596jBZ2POBTC21eP1pd2VoAkY4OMZ96QttxkcGkYlUyAOaMlgPagB2MfMucelOUk8Ypqc9v1pQTngYxQAMNwI6kVHtYcD9TS723EcAUwg/MME570APbcCASR9Kbu+YglvxqORhwPanKCQMdKABjg9M0Y3DgY/Gl2EHgfrSlsDpQA18ABa43xlZ61rN7baPYk2mlygteXqHD7c48tfQn1rsCflz156Ud/WgDn7jRdM0/wy1jDpyz2lvGWS2VclyBn8z61zXgnwrcT6ifEHiKFY9RI2Wtov3bOPsP971Nei7d3VfmHTpTe/rQBheKvD8XiS3gtL2eVLNJBJLFGdomA6K3tntWrbwR29vHBAqxwxjYqqMAAcDAq5EFPWiVVxQBw3xb02bU/AOqwW0bvKqCQInVwpDEDH0riLFdObxhous2N3cy2Gm6fJcXcrzNIELABU56HrxXtLMkgI2gj3FV0tLJIXiFvEEkzuAjAB+tAHibeOPEiSajrUU8c+n6ffj7TZRYYi3ZF6Ec8c5rY8c6rpuoTaFqmnxR3Ru0IjmTBKqdvA/Pp7V6HpHhfTNOm1R7e3QDUJN8yFQVPyhcAY6YHSvFPiF4Rv8AwU0Nx4avd+mXF6gXT5eRG7H+A9ge9AG1/s+/btXXaPDJqvgPU7MkIJopIU74yv8A9evKX8S6nYkrf+G7+PjloWEn4jArofDHxIeO1lsrPw3rF28oyqi324zxyemOaANm/wBYtYvgndNqhiwLN7ZU6FyMoPzOK6f4VAp4A0OJpVkkjtUDbWyBxkD8q8E8N+HbzV7ye88SzySwW8jCKzdy20k5we3HpXf+GdQXwdq0tw2V0W6Cq0YOFt27tj0Pr2oA9pJJYZK/hTWyT1plvLFdWsc0Do0bjcrL3FPC7Rk/lQBE688NTEHBwalbB7U0fSgBgU+tIy5FSNx9KTjvQBUYZBzUZACY71PKNopgCk0AV1680pwKkkABoZc4IoAZ7iggt0qQLheaaehxQAnGMGlKkLhRxSKCetSnIGBQBEgIFLjOcU6PJBp20E4HBoASNtpINSLkryO9RgfMcHNPA5oAmA9DSjggE5pg9qfjJXtQA/jjOAKevP0oCgjPBxShNwODigBc5xinpyOBzSINvPenjOcjrQAoznrTxxgZ+tPAA+tN2Ybc1AEg255qQ4BGM81CFGQae6n5SKAJ0PBGOPem5KqxI4pI+Tnnin4DA4OaAIm5ZSB2qeMkjg8D1qNw3CgE8VIgKoRzQA8PhfYU3O9MinLkrg4+lJG3p1HagB8R4OTg0pBG31qMoQzGm7+QN3B7UASsDkDODQSQM96HHIweMZpnAHHr1oAcjMPalZiGAPT1FJGTuIzn601xycZBoAVm3HABx60rfKV5zTFkxhRjNOOAQTQA3bkHmlB2qT14oXAJ5OKfjp34oAhRwW5GKk43ckigLz70u4qecUAIQozyTmlZuByTjtTWbOcAmmHJIwSc9qAJfl/3a4r4hKra74N/7Cf5fu3rs/mwzfeYdq8p1vXr7xFqOj3WmaDfvDpmoM0pJQcqrKRjPHJoA9Yf/VUqPvG32rA8H+Il8RWFzKLSe1MEzQMsuDll64I4NbqbRtKA7e9AEox05z707eTgHNM3Jz6+9NJxhuMUAO4ycH60EjjJxTcjk4+tHHGB7UAB7HoKYgHmluMVI+egzj1pijnaDn60AOlI2gqeajwM5zg051OduB+NNJIGFwSKAHKQjfWlzk4HQe9RtnOe3vSiQZwFGfWgBWIBxg5pO/I/OnD5Tnrmms4DZ9aAEkUFBj8aVVyj7PSo2Ib+LkVJE20Pk8YoAhZBgErzSMORg4FTbsvjiojgk5IOKAHAEdeRTSu5sjinIckDFPYAYIFAEAGCQTUw+dD1yKjY9CBUkYGO49aAIwTyFbFJIML60MoLZ3YFPl4jGTQAsZOwEcVAxJ6VcjA8kDgVUfIBGaAGemetJISBSKO5NDuTxigCxp2ftaZ9/wCVbFY+nsTdxjHr/KtjigArAZWya36w5lGf8aAGKSw5pcfMKjzlTipVHC0ALtxy1GORxgGlkznBHFOjwcZANACcqeMYFG47sgZFObAzjpSxAEZxQBEVyMbvyoGFQAn86XCqxAOfxoZg2OBx7UANZVbHSiNNvA9fWnOMMoHNGcHGMUAB64OKQgbuaR+HA/UU9wpXvn1oAZkc9B9ajHGd2DTiMnPBpT0wAMUACoHXPAprEgYHFKjHb0pQQepGaAGoWNO+tNMm04FKxyM0AAA6HpTHAzxShsjA60E9m60AcV8Wdb1fQfB9xfaHEkksZ/eM4zsTuwHqK8V1Ldq/g691K4vLy9v449+ZnOY3GMYXt+Ve7/Euxk1DwLrNtB/rJLdgvH414rYRNBaR6vpKNLbzxgXNsejnGCwz34Iz/kAG5p8pm0y2kEm/fEmGBzk4A/nXT+B5mg1CUzOvlhCxz0GBnvXnFtFp2n2vm6b4hnsrWUlxbRqszAnrhSCQPpVNV1m/vI3iOo3SRjMbzMsSNnHOFwT+PrQB0OmSQza94guNMYSaY8wNuRyPuncQfqDU99qul2sLpe3Cbu8Wd7v2wF78n9ax5NGkRHXV9US2hbG6C3IiT/vo4Y/5/BttNpVnIi6JYS6tdAYyoLYxzne3HHtQB1Pw18XLaarHoTWtzHYXDFbJ5lKkMBllIPTivXjID3r531rXr63kttRTSP8AiZ6dKXjgaX5ipXkgfxDqOK5fUfjd4p1K7SCOSDToi4VvKiy4GRk85oA+riwpM1x0Pj3QDp9tLDetel1wGgjLkkeoA4/Gsi98Y65eOI9L0tbYHAWW4IbB9doOelAHopcBCXO1VrA1vxjoukcXF2kk3UQwfvJD9FHNcpH4a1jV4Vk1fUp7hTz5ediKfYDBxzWrp3hfTLBXluWi8xBlXBywA9zzQBDpXjiHUNUS1ubZ7OOX/j3eZsGXpxjsetdhvPpXnPjk6bPoc5sonSa3/fxy+hBLHGfYY/H2rsvDmpf2roFhfhDGLiFZNhOSMjpQBq5BHI5pFJwaTfuGMU3BBoAcWz1NIB0xUZIDU4P6dqAJD8o4NNLHrmoiwwTnOKT7wBBOKAJ0bApy4LZzzUakBeO1CtnpQBMp+cgiptoK7s5NVwMHrVmKTcMAcUANUkGpAcuKiYAAsQTUucYzjkUATc801SynJOBSKCO/FLjerZ6UAPHJyDVhWAx1zVeFdoA7VOvLEc0AThgT1608AMoBPSokXg5zT1AH4UAKdvSnheOtRqcNyKcT84J6UATLgKSAaTlQRjgmjeVU46egpS6scbSKACHcQdx+lOUkc8UFunJx9KcBxkDNADcnPKke9SbSFBBH1pWzgZ5aofvBhzigCRdwYjOc96RUUOMDJpI0IJFOTcpwRQAYG7kZ9zSnbtoDH+IYppPOMAUAEZy5wO9SYHfnikQgnGBjNOyMg9vagCN4wCGHNNPBG0D8amO7t0qJx04OaAGknngCno3IGO3Wk5C/OPzpNpXGDkUAG4ZGc80nOA4wOe9P3L0fGO3FU9S3DTbg8jEbEEHkcUAXU5/iWo/+Wm3Fef2Gsz/8Kz05oZpJ9Rks1Mko+ZkBU/OR19fxrf8AANzNf+DdHurh2aeW2RmdurcdTQB03SvKfG97e+EfEMv9lJvTxB+5ijHHl3XQN9Cuc/T3r0PxDrNpoeky3l5JhVGAo5Lt2UDuT6V43YaReePNU1nW9cu1tDbDyNNhD/LBKuDu9yDgE/WgD1rRNPi8OeHIYN2Ut4t0kh/iOMkn6nNefadqWsWllrtk4uBPNi6V2fJjikUksOexBx9a7zwPrA17w/C86jzlBguUPaReGH+fWt82sJJzCnK7ScDkUAYHw8kkuvBGizTu7SvbqWMhyx9ya6Jufl+WljiSJFWNVRVGAq8AD2p23d/Dk9qAI2+UYOc/WkXJHHX3FSLGVPSg/e4+9+lADQ2Tj9aTBB7/AFp0nyHsM0inPTH50ALIBxjmowOoIxTnYg46U0MDk9aAFIAXg03nOQOPWkYHHFIWwMDGT70APZgh4yaZt6k/hTscVDKpLjB6UAPZQACQAaWJDtcnB46VGxIUDqSakjJw30oAQBlJzyaFAxnHPel555yaYAVB9TQA5fv5FLICR0oA2YJGc0jMMj3oAiHcCn7jjORSYIJIPtQqYBHBNADQxcHvSnlPmzxSH5SQKG2gdyaAJ4SWTkVXk2rmrEQwnBqvKucnigCAHJzSyHIGKTkGlfGBigCzpx/0qMH3/lWvWNpxBu4/x/lWzQAtc3MrZXaSPfOa6SsHb/ebv3oAbGOPWnge1MBPIzik8wZ5yaALA5XB7d6TOen6VCz/AC9DSow3jGQDQA5cFjknHpT+gGD07U3AJPJxTWHcEZHrQA9W7kD8aRmzjaBTcbjijaAuMYOaAHvuOCT78U4rv6c8ZqMb164K0FyOc/lQAOuCMEZpW+Yc0xWYtRIzAfdxQA9VAHAzTD1Pb8abGWxTnPHIOaAHYAHWjaO4GaQA7ATxQzcjB/OgBGQZ6fjTWwD96lYbshugHaki5BGKABAdu7P6UADPIz+NIpCttpSSvFAFHWrb7Vpd1ArDdJGQMnGK8V8F272ugW9puV2hLRsw6H5s4HavdGXJYeqmvFtPkFnretaeQUa1uWaNW+8YzjB+mc80Acp4P0yztdZ10raRFoLxo4n2/MowOh/z1q1471W80eDTYrKVo453KySiMOVHGMA+9XFhEXxA1CCAbYZrVLlo88GQnBP5Ck8YQRu2lS3A/wBHEzK2ewK4waACPw/ZvGv2tpb13AZzK7NuyOy8jHtWva20VmgSyhSKMHAWMYUc9cVztzcnwncLBcLLc6bIx8hkUu0fB+QjuKux3+tXQb7BZJbKTgSztuxj/Z60AaGp6Pa6iI5mPk30J3xylthBBBxn0/lmuP8ADXgWHxXrjay8o+0JcFrq1SMIFOTjp9M5retPDrTyF9Xv7m6ZvvRgkR/QLTbGW38MeK7ixtYxbQ30aywxwjltuBtx6mgBfGHhK18FC08R6X+6QTLHfWyN8skZ4z9QcmvQV1GwtFMllGCCnBcH+f4iuD+IMl/c/D/Vriewmgt2jAUzuFfkj+E/yroPDPgWfUdK0u617UJnYQqTbxZSMjAwGGeSPWgCfXPGcarHDJIMydI4gTz9RWbaW2v6lEWt9JktVOQGvXwRxnOBnjmvQ9P0TT9NybG0gic4y6oATj1q/J2oA8/s/Aj3UefEGoS3GTuEEbbEQ57YwWHsfWuzt7eK1gjggULDGoVQB0Aqw9M5oAMAHg0cZoIOM00kg9KAEIC570gAp2c0jHDDmgCNlAz2pE543HFP68UiAA5NACjhgB0qQEBscimAAnOKVi24dxQBMoy3XipkGB7VEgU8ipAcrnNAEmMilK8A9qjhfcxBqRZADgigByL8uVPHvUy9DgiokAYcGlYEccA0ASocsBUyKS3XHNV0+U/MasIwoAnBx8vJ96lQjAyRUI9+D7Uqtt4zQBYcDeOMj2oZOQOvtUSPuk9qmByfm49KAFA+U7yaFx0HNOcgLxSKeeo+mMUAG3dgtnFKMhh2WnAkBcAkZpSzAEE8elACHr7e1KB1APFRM5BHGakSRdmehoAaCBKAM07eFbnJNIXz2x70xCxYg4oAczZ5IpByuSvNObI64pmTuPpQA+PPcU8uCg4APtTVPUEk+nFK4zggUAMVmBOQSO3NPZgcVBKCPu5yT3qQNhPmGfoKAHMCwJJpFO0ZAJ+lJjGTz+dOI5BWgBoYMOVGenIpko81SroGDcMBzxTWmRZVjZlDAFtpPOO5pkV1FdKXtpkdAcZVgRn0oAhtdI02C3eOCygjjddjBUAyvofbrRdT2Gh6UZJDFa2dunT7qqo7CsrWPFVnpV6tjJHdSzlPMMdvE0hC5xk4HFcHd+KbXxL4xtdN1OG/hsonDwWrWzg3Mn95+OFU0AdX4es7rxRqn9u6zC8djGSNPtJBggf89WX+8e3oKw/G3g/RLDVvDiWtikSXepbJgrH5wysT+tepxKUCqpCj+VQXllBdy273MKyvC/mRk/wtjGaAKPh/RNO0FJo9MtI7ZZH3uEGNx9T71tealQN1+UU5Ad652/pQA9dx5I3D27UpcdAp/Gg8cdB7dqjdgDlTz60APLZPOfwpgOTkH8BTAx3ZOKFzjpQA4tvb5hTgAowMimKM+1Ck9mFADwwPB4+tIVB+7TS3PzHFJKx2/eoATocMTg1DhVc/pipFfI5PSmhSTkcUAPLbcZJGaadrjIyMdaVueAeaFJKkdqAEYAAYNSwDO4ZB4qAgKh/rT7dsbunSgB+wK2euajdgrDmpOD0qvIMSLkCgCRn3EDPFEgKFemTSxgcccClkx3zQBE5wcjkGnA8ZHXvTFCnOc5pygshHSgBowSQTSuvBxxUXOSF+9Tznb159qALNtt8sDvUMy5BIIHtToflXp+JqBxu3HP5UAM7c0jLxTaVhx1oAm0z/AI/Y/wAf5GtvFYumn/TI/wAf5GtvNABWHubf/wDXrcrEf5l3KuKAI9wUEAVHtOCc/h0pykj73T86CAzjnBoAGQEZ3VIiEc9qUIUJ5zSjIXC0AIxJzzz24pB93lSDSliD2460BssCDzQAmMsOcUoXH8Wad1bLEU6UHC45oAjlBIGDTApxjnp1qSQYAIJyfSgA98468UAQSoQQRTgcLhv1pZSARjJH1pAN4wRg+5oAb0+7Sgtn5jgUBSp4/GlJyMtxQAEknHOKPmznjik9yaUAdVNACjPbFR4YdM8+lSIdxwetLJgLkdaAItueTwad14JJNNBzzjmnK2eAcUAIfu8da4nxx4Wkv5o9W05U/tKBSrbh/rExyp9/Su5A46f40m3G5f1oA+eZpo5PFmn3ERxNKjwzAjDLtXIB78GrXi+xmvvDM0USDzo2SVc98MD/ACBrsPHPw/ub7VrfVPD00NrdGYtPuHB3AAuP9oAfjirumeAI0iH9q6hc3jn7wzsX8AvHpQB5p4pvIrnw5BqVuRNDbT+ZIF5PoR+Ga34yzW8bfwnDdRyP8/59bfxT8CAeFLqPwvbRw7lzNGAdpxznA75HWvP9H+IFsmnQRarZzWl0FAbehEbcYyD/AENAHexn7275lxVNUWz8d6JqkyLKkoNgqDqjPzv57ADFY9tqVm0S3Ot+J9Ps7dcf6PZMJWce5xkN9KtW09/rF3EngfSLlR21fUc7E90U9TQBt/ECc+KPFuk+E7F8wq4vL9x/CinIU/U16WAECogAVRgCua8DeEIvC9vPJNM19qlyd9zdvndI39B7VuatepYaTeXsoGy3haUjOCcAn+lAFpxjqRQduFrzC18QX1hb+HNZvdQM8eqXCw3FsSNsQkGVKemOB75r035do9zQBC3BORUZdQeamcdeagYDPSgBWI7GoxnfTwKaM7zg0AIQRTWwfanNknk4pjpnHNAC8qMA04qWj60m3A60q8CgBRnaFzSqADwcmjt1pVHzYx+NAD0zuqRcbCO9R4Kn3p0ecnPWgCWPA6U/JJ+7TAcduakMnA9aAHjgcjFKvOD15pnVeTilU8kDrQBKy7s/Ljmp4wOhGPrUKnBGc1MFJ5J70ATrjJzyaaVJOc4PvSbuu2lQtn0+tAEgyuM8fQVYUDbk1UVjvG7IHvU2cZP86AJC+37oyO9OHBy2OaiaX5DkCoPOZ3wf1oA01JJGOlMILE8jPvUUEpCjPSm7ju3Z/CgCRgc8nJpoyCO1OjYsx4H404soO0igBcnPOMU0Nzx1NKQM8VFtIYGgCZl55PNCKAeOnekBHJI/E0KwoAlRcHgkUsiEAFXFRh/nyN2MUM3HBzjtQA2RDznk+tCn5fmJ4o3sQQTQSduM0AIvQgnIpSSRjGaiLfMc59OakDY4PA9aAPNPFDXQ8ZR6jEsjwIH05giEtloy3TvzitHwKy6dZ3ySqkOnw+W6TNEIskrlgQPTj860/FvirTfD0kUEzCTUZifItVYKz+/PQe5rg/Fol17TVhv9Qt5r6+lW2ttOtJQ0cW7qzHqxAyfTigCDQPEsuua7rF7aXdrYxXE5i+2TuvywoSFEak9Tycmuy0O58JaKXaPWLWW7k/1s806tI59z/QVr2HhPRLazghGm2f7pFQboVJwBj0qW5sNB0+LzruzsbeAYG9o1AyTgUAO/4S/w+rfPq9j/AN/l/wAaZ/wm3hoSEDWLQEekgNLenw7pxh+3R2EBmOEDqo3fT1rTGl2CqDFZ24Q9MRigDhdKvpvFfijWl0/XrhLC18lY/su0D5lJOcg55rfTwret97xHq/8A30n/AMTWDbm88N+NNcuE0a9ntbwQtC1silflXBzyMc1tJ4wumT/kXNa/GNf/AIqgCX/hFLj7v/CRauy+8i//ABNYHjK1vvC2m22ow67fyBbuCN1mdShVpFUg8DsTW1/wl1x/0Lus/wDftf8A4qsTxfc33inT7bTI/D+ooHu4JHa4RAgRZFZs/N6CgDq08R6NtX/iZ2f/AH+XOfzrC8a/ELSfC+kLqLzJeIZVjMcEilue+K2/+ET0T5f+JVYj/tgv+FZPi/4daJ4j0gafLbw20XmrIzQRqjHHbOOnNAEXhb4oeF/EexbPUokmbjypjsb9a7NskZTge9cf4b+Gvhbw+ENjpNuZl/5aSDzG/M12e3AwOg6UABLYG3H40jjcMHmnMTsXH3vemS7jxjaPagBik7j0pwyRx1NNX5SffpT1JHXmgBASpwQPrTumOeKR1Gcn5qGIEY7kdqAI5WwGwBT43Ug5A6UzqCalhXduJx09KAEjbA+XFI6lyM4p8PKYxikZhyCQKAFX5SMHgd6SdipHvSBlyB1FLMOmRn0oAgOckdDTlDKPam9Oo5p6jgnNADCVAOR+dNIGwnP5U5s04oCpzkH0oAfEd0QJ69qqMSN2Sc1aiB2ZB/CqsvJbJwaAIc80NSDHal7UAWdMb/TI+PX+VbmaxNL/AOPyP8f5VucUAFYR7Vu1hNQAzrnGKbj5/mIqRFbnpikZBvOeKAJd+R0ppc/winR7SOTSFCW+U0ARk5GdvNNPGML81S/xH1pR0yaAIwM8E81KcgDJJxQSpHC496M7eBQApOQOKVV+XmhixC7Rn2pFVgvP50ARygBguCaCoUHPSnngjvQ5yDjFAEKkc4zQ3OMg/SnkcDJpoXJPX60AO4wCFzRyOSBikXpheaR85AyaAHE+gpG6ZxzTFJVuaeMtz2oAYASeFp23HIAxTWO1xjrUh6ZBOaAAnBpoOQaU85pg4BoAaQxJ9KDxjNHUEL1oUsMKcUANKZyDyDWZqGi6bfJsu7O3lUfwvGCP1rWNVZPv0AYVj4O8OWlwZoNGsUl9REK2wiLhUAVVGAAMYqRfmOaa/egCFW67ay/EFj/aui39iPl+0QPFn3IIrUxspBQB41aeHk1Cy8MaWukvBe2E6SXsxhKhRGOob+LccdPWuls01Oy+IBOqGZ7e7EgtGhnbylAH3XT1967zOGJXg9qzLPR7Syu5LiKM+a5J3O5YjPXGTwPpQBdIPU1GadN9zioBnZQA7cR/dqM5zn+VISQP4aaGIP8AhQAZ5qTGRURPNBfAoAcQQaeSAKjVsjmlGO9ADgdx44FSIcMAeRTFPGCKfE2XwFoAmVS2B0p4U8nrUYypB61MgJyOlADhnb2pdtOX+GqE1vqMupQyR3cSWK/fhMWWY/72f6UAaAUnHGakVWpVyDjp7084XkHJ9KAEHTJzj3NTBsdMke1QgZXIHOelSrw/IwcetAEqDcuQMEUvUDIGaYp+b2qTAzwOtAC43HnpQ5zwtIDxhaaeDjvQA4qQPakBAIp6j5etMVPmoAmAG0c0EkMMHpQo46dKCR6UAPD4P1p4l56cioAx9OKfGxzQBMXDGmMxHFM8xQ+BSbtzUASGTse9MIJwF6UMNp4pA7BQCefagCZDjjJpd+OoFR7/AJwOtI5+YYBoAez54p+cqKh7k+lOR/kJoAdIQcc89qYflUFzgjkk012AUHcKPlcBGywPXNAHn+uWdv481lrK0tYG0y3Oy71AxgvJj/llGcfme1dbp/hrRtNkhks9OtopIhtjdY1DAYx1rQsLSDTrdbezjjhgX7qIMAVN956AFLCuY+INrNe+GLiC2ieWRpIjtQZOBIpPH0FdL/H92nEN2UUAcJ4l+36qFm02zv45IYnSF3UANJ8u3cpGdp9eOld3bmQQRCfAcqC231xzT0QsMcVI6qEH96gCOQBjXB+OPEt7pmrW1lpnkNNLA77HOcEbcEjt1Nd3XNa94YXVtViuvPECrA0DhEG9wxGfm7dPSgDK8NeJb68N1NeTW0ltHBuQwkffzgqTnrnj9ab4T8WT3+r3K6nPBHAlujhT8hDMzdQehwBxWhoHhCPw/bXEOmz5WYNiKRMxglic4/IfhR/whaxs15DctHqbuHkm2Ao+P4SnTFAHYMNyqVPam4HGfXNCDlQfSl5LYA6d6AGudvIUbTTw23HNDHp8mTUcg5yDkjtQBK5DEUyY9fSmd1/lUkhDDj8qAK6sMkEfjS7iBgfnQVwMk/hTgmcEH8KABnxHyacvzZ4wMdahm/2Rz61JHkKNxoARFyzcVOgKueM9aqvkbjmrFsxye/BoAaBhTu5z2qNiN4yKlJwDyCaiYEsATx60AKcA8U98kA0zgcelPkyQoHagCE5LHNC4UGnpyxzQNqk5oAjyCTk9qcG+Qg00jL9Rikf0zzigCSB+OegqtL/rGPYmpUUlT7dajm5HHTNAFPP73gcVPs4zTVHznIqRlwuaAJtM/wCP1Px/lW5WJpv/AB+x/j/KtugArNNhJn7yUUUAKtlKOrJ+Z/wpGsZD3T86KKAEawlPRkH4mk/s6b++n5miigCQWUndl/WlFk+eWXFFFACmyfJ+ZcU1rJ8cFc/WiigBv2Kb++v5ml+yT4xuTHrk5/lRRQAospMcspP40fYn/vJRRQA1rGY/xpTRYTf3k/P/AOtRRQA4WMv95P8AP4UjafKf40/z+FFFACf2dL/fT/P4Uv8AZ8v99P8AP4UUUAN/s6X1j/M/4Uq6fKP4k/M/4UUUAO+wS+qe3P8A9am/YJ/WP8z/AIUUUAH9ny9jH+Z/wpn9mz5+9H+Z/wAKKKAD+zZ/78X5n/CmHSpj1aL8z/hRRQA3+yrgfdeL8z/hR/ZVx/fi/M/4UUUANOjzn+KL9f8ACmHRbn+GSL/vo/4UUUAM/sO5/vw/mf8ACmnQrs/xwfmf8KKKAI38P3Z/5aQf99H/AApn/CN3n/PS3/76b/CiigBD4avD/wAtLf8A76P+FN/4Ri9/562//fR/woooAP8AhGb3/nrb/wDfR/wo/wCEYvf+etv+Z/woooAT/hGL7/nrb/mf8KP+EYvv+e1v/wB9H/CiigB3/CM3n/PaD/vpv8KePDt4G5kt8ezH/CiigCRdAulb/WQf99H/AAqT+w7r/npD/wB9H/CiigBf7DuP+ekX/fR/wpV0O4X/AJaRfmf8KKKAJP7HuP78X5n/AApy6TcD+OL8z/hRRQA9NLmHVo/zP+FH9lzFsl4/zP8AhRRQBJ/Z0v8Aej/Wg6fN/C0f5miigBE06b+Jos/jSnTZSc70/M0UUAH9nS/30/M0v9ny/wB9PzNFFADlsZV/iTH1NO+xN6r+f/1qKKAE+xSeqfn/APWpfsUnqv5//WoooAT7DJ/eT8z/AIUfYpemY8fU/wCFFFAB9gfb1X8z/hSfYZP7y/mf8KKKAHCxffuyv5mnfZJPVfz/APrUUUANazk/vL+dILKX+9H+ZoooARrGQjrH+ZoWxkXun5miigB/2OX+8n5mj7JJ6p+ZoooAFtJfVPzNP+yuepX8zRRQA5Ld16MtK0DnutFFACfZ29Vpv2eTnlKKKAAWr/3hTvs8mPvD86KKAG/ZpP7y077PJ/eWiigA+zyf3l/OmtbOf4koooAb9lf1X8//AK1OW2lDg5SiigBPsrnqV/Ol+zP/AAlaKKAD7NL6p/n8KPsz+qfnRRQAhtCepX86clsy9Cv50UUAN+yv6rSG0k/vLRRQA37E/wDfWla0lb+JPzNFFAB9if8AvL+Zoayc/wAS/maKKAGfYZPVP1pfsUvqlFFADvscmPvJ+tRNYTE/fjx9T/hRRQAz+zZv70f5n/ClOmznq6fmf8KKKAJLSxkhuFd2QqM9M56VpUUUAf/Zl2fWAiDQ0xE=;" parent="1" vertex="1">
          <mxGeometry x="2" y="90" width="822.12" height="330" as="geometry" />
        </mxCell>
        <mxCell id="R5iJuWBh18saaudUanpF-10" value="" style="shape=ext;double=1;rounded=0;whiteSpace=wrap;html=1;" parent="1" vertex="1">
          <mxGeometry x="360" y="630" width="60" height="60" as="geometry" />
        </mxCell>
        <mxCell id="gv0qvBjVd57dOTgeOcsv-4" value="" style="shape=ext;double=1;rounded=1;whiteSpace=wrap;html=1;" parent="1" vertex="1">
          <mxGeometry x="381" y="480" width="20" height="170" as="geometry" />
        </mxCell>
        <mxCell id="R5iJuWBh18saaudUanpF-11" value="" style="ellipse;shape=doubleEllipse;whiteSpace=wrap;html=1;aspect=fixed;" parent="1" vertex="1">
          <mxGeometry x="212" y="692" width="56" height="56" as="geometry" />
        </mxCell>
        <mxCell id="R5iJuWBh18saaudUanpF-15" value="" style="ellipse;shape=doubleEllipse;whiteSpace=wrap;html=1;aspect=fixed;" parent="1" vertex="1">
          <mxGeometry x="381" y="650" width="20" height="20" as="geometry" />
        </mxCell>
        <mxCell id="R5iJuWBh18saaudUanpF-20" value="" style="endArrow=none;dashed=1;html=1;rounded=0;strokeWidth=2;fillColor=#60a917;strokeColor=#2D7600;" parent="1" edge="1">
          <mxGeometry width="50" height="50" relative="1" as="geometry">
            <mxPoint x="240" y="825" as="sourcePoint" />
            <mxPoint x="240" y="520" as="targetPoint" />
          </mxGeometry>
        </mxCell>
        <mxCell id="R5iJuWBh18saaudUanpF-21" value="" style="shape=waypoint;sketch=0;fillStyle=solid;size=6;pointerEvents=1;points=[];fillColor=none;resizable=0;rotatable=0;perimeter=centerPerimeter;snapToPoint=1;strokeColor=#FF3333;strokeWidth=4;" parent="1" vertex="1">
          <mxGeometry x="230" y="710" width="20" height="20" as="geometry" />
        </mxCell>
        <mxCell id="R5iJuWBh18saaudUanpF-22" value="" style="endArrow=none;dashed=1;html=1;rounded=0;strokeWidth=2;fillColor=#60a917;strokeColor=#2D7600;" parent="1" edge="1">
          <mxGeometry width="50" height="50" relative="1" as="geometry">
            <mxPoint x="40" y="720" as="sourcePoint" />
            <mxPoint x="480" y="720" as="targetPoint" />
          </mxGeometry>
        </mxCell>
        <mxCell id="R5iJuWBh18saaudUanpF-23" value="" style="shape=waypoint;sketch=0;fillStyle=solid;size=6;pointerEvents=1;points=[];fillColor=none;resizable=0;rotatable=0;perimeter=centerPerimeter;snapToPoint=1;strokeColor=#FF3333;strokeWidth=3;" parent="1" vertex="1">
          <mxGeometry x="381" y="650" width="20" height="20" as="geometry" />
        </mxCell>
        <mxCell id="R5iJuWBh18saaudUanpF-24" value="" style="endArrow=none;dashed=1;html=1;rounded=0;strokeWidth=2;fillColor=#60a917;strokeColor=#2D7600;" parent="1" edge="1">
          <mxGeometry width="50" height="50" relative="1" as="geometry">
            <mxPoint x="40" y="660" as="sourcePoint" />
            <mxPoint x="480" y="660" as="targetPoint" />
          </mxGeometry>
        </mxCell>
        <mxCell id="R5iJuWBh18saaudUanpF-25" value="" style="endArrow=none;dashed=1;html=1;rounded=0;strokeWidth=2;fillColor=#60a917;strokeColor=#2D7600;" parent="1" edge="1">
          <mxGeometry width="50" height="50" relative="1" as="geometry">
            <mxPoint x="391" y="760" as="sourcePoint" />
            <mxPoint x="390" y="440" as="targetPoint" />
          </mxGeometry>
        </mxCell>
        <mxCell id="R5iJuWBh18saaudUanpF-26" value="" style="shape=crossbar;whiteSpace=wrap;html=1;rounded=1;direction=south;strokeColor=#3399FF;strokeWidth=4;" parent="1" vertex="1">
          <mxGeometry x="449" y="661" width="20" height="60" as="geometry" />
        </mxCell>
        <mxCell id="R5iJuWBh18saaudUanpF-27" value="" style="shape=crossbar;whiteSpace=wrap;html=1;rounded=1;strokeColor=#3399FF;strokeWidth=4;" parent="1" vertex="1">
          <mxGeometry x="241" y="571" width="150" height="20" as="geometry" />
        </mxCell>
        <mxCell id="gv0qvBjVd57dOTgeOcsv-1" value="&lt;b style=&quot;&quot;&gt;&lt;font style=&quot;font-size: 15px;&quot; color=&quot;#3399ff&quot;&gt;+d5&lt;/font&gt;&lt;/b&gt;" style="text;strokeColor=none;align=center;fillColor=none;html=1;verticalAlign=middle;whiteSpace=wrap;rounded=0;fontColor=#FF9933;" parent="1" vertex="1">
          <mxGeometry x="286" y="550" width="60" height="30" as="geometry" />
        </mxCell>
        <mxCell id="gv0qvBjVd57dOTgeOcsv-2" value="&lt;b style=&quot;&quot;&gt;&lt;font style=&quot;font-size: 15px;&quot; color=&quot;#3399ff&quot;&gt;+a5&lt;/font&gt;&lt;/b&gt;" style="text;strokeColor=none;align=center;fillColor=none;html=1;verticalAlign=middle;whiteSpace=wrap;rounded=0;fontColor=#FF9933;" parent="1" vertex="1">
          <mxGeometry x="413" y="677" width="60" height="30" as="geometry" />
        </mxCell>
        <mxCell id="gv0qvBjVd57dOTgeOcsv-6" value="" style="shape=crossbar;whiteSpace=wrap;html=1;rounded=1;direction=south;strokeColor=#3399FF;strokeWidth=4;" parent="1" vertex="1">
          <mxGeometry x="449" y="480" width="20" height="181" as="geometry" />
        </mxCell>
        <mxCell id="gv0qvBjVd57dOTgeOcsv-7" value="&lt;b style=&quot;&quot;&gt;&lt;font style=&quot;font-size: 15px;&quot; color=&quot;#3399ff&quot;&gt;+d6&lt;/font&gt;&lt;/b&gt;" style="text;strokeColor=none;align=center;fillColor=none;html=1;verticalAlign=middle;whiteSpace=wrap;rounded=0;fontColor=#FF9933;" parent="1" vertex="1">
          <mxGeometry x="413" y="555.5" width="60" height="30" as="geometry" />
        </mxCell>
        <mxCell id="gv0qvBjVd57dOTgeOcsv-8" value="" style="endArrow=none;dashed=1;html=1;rounded=0;strokeColor=#2D7600;strokeWidth=2;fillColor=#60a917;" parent="1" edge="1">
          <mxGeometry width="50" height="50" relative="1" as="geometry">
            <mxPoint x="320" y="480" as="sourcePoint" />
            <mxPoint x="480" y="480" as="targetPoint" />
          </mxGeometry>
        </mxCell>
        <mxCell id="gv0qvBjVd57dOTgeOcsv-9" value="" style="endArrow=classic;html=1;rounded=0;strokeWidth=2;fillColor=#a20025;strokeColor=#000000;" parent="1" edge="1">
          <mxGeometry width="50" height="50" relative="1" as="geometry">
            <mxPoint x="120" y="560" as="sourcePoint" />
            <mxPoint x="120" y="480" as="targetPoint" />
          </mxGeometry>
        </mxCell>
        <mxCell id="gv0qvBjVd57dOTgeOcsv-10" value="" style="endArrow=classic;html=1;rounded=0;strokeWidth=2;fillColor=#a20025;strokeColor=#000000;" parent="1" edge="1">
          <mxGeometry width="50" height="50" relative="1" as="geometry">
            <mxPoint x="120" y="560" as="sourcePoint" />
            <mxPoint x="40" y="560" as="targetPoint" />
          </mxGeometry>
        </mxCell>
        <mxCell id="gv0qvBjVd57dOTgeOcsv-11" value="&lt;font&gt;&lt;span style=&quot;font-size: 15px;&quot;&gt;&lt;b&gt;x&lt;/b&gt;&lt;/span&gt;&lt;/font&gt;" style="text;strokeColor=none;align=center;fillColor=none;html=1;verticalAlign=middle;whiteSpace=wrap;rounded=0;fontColor=#000000;" parent="1" vertex="1">
          <mxGeometry x="77" y="470" width="60" height="30" as="geometry" />
        </mxCell>
        <mxCell id="gv0qvBjVd57dOTgeOcsv-12" value="&lt;font&gt;&lt;span style=&quot;font-size: 15px;&quot;&gt;&lt;b&gt;y&lt;/b&gt;&lt;/span&gt;&lt;/font&gt;" style="text;strokeColor=none;align=center;fillColor=none;html=1;verticalAlign=middle;whiteSpace=wrap;rounded=0;fontColor=#000000;" parent="1" vertex="1">
          <mxGeometry x="18" y="529" width="60" height="30" as="geometry" />
        </mxCell>
        <mxCell id="kwsgZv1aEIvcPMmzJyRn-1" value="&lt;h4&gt;&lt;font&gt;&lt;span style=&quot;font-size: 14px;&quot;&gt;J4 J5旋转结构的放大俯视图&lt;br&gt;&lt;/span&gt;&lt;/font&gt;&lt;font&gt;&lt;span style=&quot;font-size: 14px;&quot;&gt;注意坐标系方向与连杆取值正负&lt;/span&gt;&lt;/font&gt;&lt;/h4&gt;" style="text;strokeColor=none;align=center;fillColor=none;html=1;verticalAlign=middle;whiteSpace=wrap;rounded=0;fontColor=#000000;" parent="1" vertex="1">
          <mxGeometry x="116" y="826" width="250" height="40" as="geometry" />
        </mxCell>
      </root>
    </mxGraphModel>
  </diagram>
  <diagram id="LI_U9zOOs9noiJLDhLpM" name="第 3 页">
    <mxGraphModel dx="1418" dy="843" grid="1" gridSize="10" guides="1" tooltips="1" connect="1" arrows="1" fold="1" page="1" pageScale="1" pageWidth="827" pageHeight="1169" math="0" shadow="0">
      <root>
        <mxCell id="0" />
        <mxCell id="1" parent="0" />
        <mxCell id="CbOKXseD0_2vqyZF5-6V-25" value="&lt;b&gt;d6&lt;/b&gt;" style="text;strokeColor=none;align=center;fillColor=none;html=1;verticalAlign=middle;whiteSpace=wrap;rounded=0;fontColor=#FF9933;" parent="1" vertex="1">
          <mxGeometry x="169" y="384.5" width="27" height="30" as="geometry" />
        </mxCell>
        <mxCell id="CbOKXseD0_2vqyZF5-6V-30" value="" style="shape=crossbar;whiteSpace=wrap;html=1;rounded=1;strokeWidth=3;strokeColor=#FF9933;direction=south;" parent="1" vertex="1">
          <mxGeometry x="183" y="359" width="20" height="81" as="geometry" />
        </mxCell>
        <mxCell id="CbOKXseD0_2vqyZF5-6V-35" value="" style="shape=waypoint;sketch=0;fillStyle=solid;size=6;pointerEvents=1;points=[];fillColor=none;resizable=0;rotatable=0;perimeter=centerPerimeter;snapToPoint=1;strokeWidth=5;strokeColor=#FF3333;" parent="1" vertex="1">
          <mxGeometry x="229" y="309" width="20" height="20" as="geometry" />
        </mxCell>
        <mxCell id="CbOKXseD0_2vqyZF5-6V-36" value="" style="endArrow=classic;html=1;rounded=0;exitX=0.2;exitY=0.25;exitDx=0;exitDy=0;exitPerimeter=0;strokeColor=#3399FF;strokeWidth=3;" parent="1" source="CbOKXseD0_2vqyZF5-6V-35" edge="1">
          <mxGeometry width="50" height="50" relative="1" as="geometry">
            <mxPoint x="89" y="649" as="sourcePoint" />
            <mxPoint x="239" y="199" as="targetPoint" />
          </mxGeometry>
        </mxCell>
        <mxCell id="CbOKXseD0_2vqyZF5-6V-37" value="" style="endArrow=classic;html=1;rounded=0;strokeWidth=3;strokeColor=#00CC00;" parent="1" source="CbOKXseD0_2vqyZF5-6V-35" edge="1">
          <mxGeometry width="50" height="50" relative="1" as="geometry">
            <mxPoint x="8" y="649" as="sourcePoint" />
            <mxPoint x="359" y="319" as="targetPoint" />
          </mxGeometry>
        </mxCell>
        <mxCell id="CbOKXseD0_2vqyZF5-6V-38" value="&lt;b style=&quot;&quot;&gt;&lt;font color=&quot;#3399ff&quot;&gt;Z&lt;/font&gt;&lt;/b&gt;" style="text;strokeColor=none;align=center;fillColor=none;html=1;verticalAlign=middle;whiteSpace=wrap;rounded=0;" parent="1" vertex="1">
          <mxGeometry x="224" y="169" width="30" height="30" as="geometry" />
        </mxCell>
        <mxCell id="CbOKXseD0_2vqyZF5-6V-39" value="&lt;font color=&quot;#00cc00&quot;&gt;&lt;b&gt;X&lt;/b&gt;&lt;/font&gt;" style="text;strokeColor=none;align=center;fillColor=none;html=1;verticalAlign=middle;whiteSpace=wrap;rounded=0;" parent="1" vertex="1">
          <mxGeometry x="332" y="319" width="30" height="30" as="geometry" />
        </mxCell>
        <mxCell id="CbOKXseD0_2vqyZF5-6V-40" value="" style="endArrow=classic;html=1;rounded=0;exitX=0.8;exitY=0.75;exitDx=0;exitDy=0;exitPerimeter=0;strokeColor=#FFD966;strokeWidth=3;" parent="1" source="CbOKXseD0_2vqyZF5-6V-35" edge="1">
          <mxGeometry width="50" height="50" relative="1" as="geometry">
            <mxPoint x="89" y="549" as="sourcePoint" />
            <mxPoint x="299" y="229" as="targetPoint" />
          </mxGeometry>
        </mxCell>
        <mxCell id="CbOKXseD0_2vqyZF5-6V-41" value="" style="endArrow=classic;html=1;rounded=0;exitX=0.9;exitY=0.8;exitDx=0;exitDy=0;exitPerimeter=0;strokeColor=#3399FF;strokeWidth=3;" parent="1" source="CbOKXseD0_2vqyZF5-6V-35" edge="1">
          <mxGeometry width="50" height="50" relative="1" as="geometry">
            <mxPoint x="89" y="549" as="sourcePoint" />
            <mxPoint x="279" y="259" as="targetPoint" />
          </mxGeometry>
        </mxCell>
        <mxCell id="CbOKXseD0_2vqyZF5-6V-42" value="" style="endArrow=classic;html=1;rounded=0;strokeColor=#3399FF;strokeWidth=3;" parent="1" edge="1">
          <mxGeometry width="50" height="50" relative="1" as="geometry">
            <mxPoint x="239" y="319" as="sourcePoint" />
            <mxPoint x="319" y="319" as="targetPoint" />
          </mxGeometry>
        </mxCell>
        <mxCell id="CbOKXseD0_2vqyZF5-6V-43" value="" style="shape=waypoint;sketch=0;fillStyle=solid;size=6;pointerEvents=1;points=[];fillColor=none;resizable=0;rotatable=0;perimeter=centerPerimeter;snapToPoint=1;strokeWidth=3;strokeColor=#FF3333;" parent="1" vertex="1">
          <mxGeometry x="203" y="349" width="20" height="20" as="geometry" />
        </mxCell>
        <mxCell id="CbOKXseD0_2vqyZF5-6V-44" value="" style="shape=waypoint;sketch=0;fillStyle=solid;size=6;pointerEvents=1;points=[];fillColor=none;resizable=0;rotatable=0;perimeter=centerPerimeter;snapToPoint=1;strokeWidth=5;strokeColor=#FF3333;" parent="1" vertex="1">
          <mxGeometry x="203" y="429" width="20" height="20" as="geometry" />
        </mxCell>
        <mxCell id="CbOKXseD0_2vqyZF5-6V-45" value="" style="endArrow=none;html=1;rounded=0;entryX=0.95;entryY=0.9;entryDx=0;entryDy=0;entryPerimeter=0;strokeColor=#999999;strokeWidth=5;" parent="1" source="CbOKXseD0_2vqyZF5-6V-43" target="CbOKXseD0_2vqyZF5-6V-35" edge="1">
          <mxGeometry width="50" height="50" relative="1" as="geometry">
            <mxPoint x="209" y="359" as="sourcePoint" />
            <mxPoint x="139" y="499" as="targetPoint" />
          </mxGeometry>
        </mxCell>
        <mxCell id="CbOKXseD0_2vqyZF5-6V-46" value="" style="endArrow=none;html=1;rounded=0;strokeColor=#999999;strokeWidth=5;" parent="1" source="CbOKXseD0_2vqyZF5-6V-44" edge="1">
          <mxGeometry width="50" height="50" relative="1" as="geometry">
            <mxPoint x="229" y="479" as="sourcePoint" />
            <mxPoint x="213" y="359" as="targetPoint" />
          </mxGeometry>
        </mxCell>
        <mxCell id="CbOKXseD0_2vqyZF5-6V-47" value="&lt;b style=&quot;&quot;&gt;&lt;font color=&quot;#3399ff&quot;&gt;Z4&lt;/font&gt;&lt;/b&gt;" style="text;strokeColor=none;align=center;fillColor=none;html=1;verticalAlign=middle;whiteSpace=wrap;rounded=0;" parent="1" vertex="1">
          <mxGeometry x="249" y="239" width="30" height="30" as="geometry" />
        </mxCell>
        <mxCell id="CbOKXseD0_2vqyZF5-6V-48" value="&lt;b style=&quot;&quot;&gt;&lt;font color=&quot;#3399ff&quot;&gt;Z5&lt;/font&gt;&lt;/b&gt;" style="text;strokeColor=none;align=center;fillColor=none;html=1;verticalAlign=middle;whiteSpace=wrap;rounded=0;" parent="1" vertex="1">
          <mxGeometry x="299" y="289" width="30" height="30" as="geometry" />
        </mxCell>
        <mxCell id="CbOKXseD0_2vqyZF5-6V-49" value="" style="endArrow=classic;html=1;rounded=0;strokeColor=#3399FF;strokeWidth=3;exitX=0.75;exitY=0.85;exitDx=0;exitDy=0;exitPerimeter=0;" parent="1" source="CbOKXseD0_2vqyZF5-6V-44" edge="1">
          <mxGeometry width="50" height="50" relative="1" as="geometry">
            <mxPoint x="89" y="808" as="sourcePoint" />
            <mxPoint x="213" y="519" as="targetPoint" />
          </mxGeometry>
        </mxCell>
        <mxCell id="CbOKXseD0_2vqyZF5-6V-50" value="&lt;b style=&quot;&quot;&gt;&lt;font color=&quot;#3399ff&quot;&gt;Z6&lt;/font&gt;&lt;/b&gt;" style="text;strokeColor=none;align=center;fillColor=none;html=1;verticalAlign=middle;whiteSpace=wrap;rounded=0;" parent="1" vertex="1">
          <mxGeometry x="211" y="491" width="31" height="30" as="geometry" />
        </mxCell>
        <mxCell id="CbOKXseD0_2vqyZF5-6V-51" value="&lt;font color=&quot;#ffd966&quot;&gt;&lt;b&gt;Y&lt;/b&gt;&lt;/font&gt;" style="text;strokeColor=none;align=center;fillColor=none;html=1;verticalAlign=middle;whiteSpace=wrap;rounded=0;" parent="1" vertex="1">
          <mxGeometry x="289" y="209" width="30" height="30" as="geometry" />
        </mxCell>
        <mxCell id="CbOKXseD0_2vqyZF5-6V-52" value="" style="endArrow=classic;html=1;rounded=0;strokeWidth=3;strokeColor=#00CC00;" parent="1" edge="1">
          <mxGeometry width="50" height="50" relative="1" as="geometry">
            <mxPoint x="239" y="319" as="sourcePoint" />
            <mxPoint x="240" y="260" as="targetPoint" />
          </mxGeometry>
        </mxCell>
        <mxCell id="CbOKXseD0_2vqyZF5-6V-53" value="&lt;b style=&quot;&quot;&gt;&lt;font color=&quot;#00cc00&quot;&gt;X4&lt;/font&gt;&lt;/b&gt;" style="text;strokeColor=none;align=center;fillColor=none;html=1;verticalAlign=middle;whiteSpace=wrap;rounded=0;" parent="1" vertex="1">
          <mxGeometry x="211" y="250" width="30" height="30" as="geometry" />
        </mxCell>
        <mxCell id="CbOKXseD0_2vqyZF5-6V-54" value="" style="endArrow=classic;html=1;rounded=0;strokeWidth=3;strokeColor=#00CC00;" parent="1" edge="1">
          <mxGeometry width="50" height="50" relative="1" as="geometry">
            <mxPoint x="239" y="319" as="sourcePoint" />
            <mxPoint x="219" y="349" as="targetPoint" />
          </mxGeometry>
        </mxCell>
        <mxCell id="CbOKXseD0_2vqyZF5-6V-55" value="&lt;font color=&quot;#00cc00&quot;&gt;&lt;b&gt;X5&lt;/b&gt;&lt;/font&gt;" style="text;strokeColor=none;align=center;fillColor=none;html=1;verticalAlign=middle;whiteSpace=wrap;rounded=0;" parent="1" vertex="1">
          <mxGeometry x="229" y="329" width="30" height="30" as="geometry" />
        </mxCell>
        <mxCell id="CbOKXseD0_2vqyZF5-6V-56" value="" style="endArrow=classic;html=1;rounded=0;strokeColor=#00CC00;strokeWidth=3;" parent="1" source="CbOKXseD0_2vqyZF5-6V-44" edge="1">
          <mxGeometry width="50" height="50" relative="1" as="geometry">
            <mxPoint x="289" y="379" as="sourcePoint" />
            <mxPoint x="279" y="439" as="targetPoint" />
          </mxGeometry>
        </mxCell>
        <mxCell id="CbOKXseD0_2vqyZF5-6V-57" value="&lt;b style=&quot;&quot;&gt;&lt;font color=&quot;#00cc00&quot;&gt;X6&lt;/font&gt;&lt;/b&gt;" style="text;strokeColor=none;align=center;fillColor=none;html=1;verticalAlign=middle;whiteSpace=wrap;rounded=0;" parent="1" vertex="1">
          <mxGeometry x="249" y="409" width="30" height="30" as="geometry" />
        </mxCell>
        <mxCell id="CbOKXseD0_2vqyZF5-6V-58" value="" style="shape=crossbar;whiteSpace=wrap;html=1;rounded=1;strokeWidth=3;strokeColor=#FF9933;rotation=304;" parent="1" vertex="1">
          <mxGeometry x="183" y="315" width="50" height="20" as="geometry" />
        </mxCell>
        <mxCell id="CbOKXseD0_2vqyZF5-6V-60" value="&lt;b style=&quot;&quot;&gt;&lt;font&gt;a6&lt;/font&gt;&lt;/b&gt;" style="text;strokeColor=none;align=center;fillColor=none;html=1;verticalAlign=middle;whiteSpace=wrap;rounded=0;fontColor=#FF9933;" parent="1" vertex="1">
          <mxGeometry x="183" y="304" width="28" height="30" as="geometry" />
        </mxCell>
      </root>
    </mxGraphModel>
  </diagram>
  <diagram id="3m66ibxBSi2eUDng0r_-" name="第 4 页">
    <mxGraphModel dx="978" dy="581" grid="1" gridSize="10" guides="1" tooltips="1" connect="1" arrows="1" fold="1" page="1" pageScale="1" pageWidth="827" pageHeight="1169" math="0" shadow="0">
      <root>
        <mxCell id="0" />
        <mxCell id="1" parent="0" />
        <mxCell id="LeOrVeUGs7EtKBDzRHyu-1" value="&lt;b&gt;d6&lt;/b&gt;" style="text;strokeColor=none;align=center;fillColor=none;html=1;verticalAlign=middle;whiteSpace=wrap;rounded=0;fontColor=#FF9933;" vertex="1" parent="1">
          <mxGeometry x="169" y="384.5" width="27" height="30" as="geometry" />
        </mxCell>
        <mxCell id="LeOrVeUGs7EtKBDzRHyu-2" value="" style="shape=crossbar;whiteSpace=wrap;html=1;rounded=1;strokeWidth=3;strokeColor=#FF9933;direction=south;" vertex="1" parent="1">
          <mxGeometry x="183" y="359" width="20" height="81" as="geometry" />
        </mxCell>
        <mxCell id="LeOrVeUGs7EtKBDzRHyu-3" value="" style="shape=waypoint;sketch=0;fillStyle=solid;size=6;pointerEvents=1;points=[];fillColor=none;resizable=0;rotatable=0;perimeter=centerPerimeter;snapToPoint=1;strokeWidth=5;strokeColor=#FF3333;" vertex="1" parent="1">
          <mxGeometry x="229" y="309" width="20" height="20" as="geometry" />
        </mxCell>
        <mxCell id="LeOrVeUGs7EtKBDzRHyu-4" value="" style="endArrow=classic;html=1;rounded=0;exitX=0.2;exitY=0.25;exitDx=0;exitDy=0;exitPerimeter=0;strokeColor=#3399FF;strokeWidth=3;" edge="1" parent="1" source="LeOrVeUGs7EtKBDzRHyu-3">
          <mxGeometry width="50" height="50" relative="1" as="geometry">
            <mxPoint x="89" y="649" as="sourcePoint" />
            <mxPoint x="239" y="410" as="targetPoint" />
          </mxGeometry>
        </mxCell>
        <mxCell id="LeOrVeUGs7EtKBDzRHyu-5" value="" style="endArrow=classic;html=1;rounded=0;strokeWidth=3;strokeColor=#00CC00;" edge="1" parent="1" source="LeOrVeUGs7EtKBDzRHyu-3">
          <mxGeometry width="50" height="50" relative="1" as="geometry">
            <mxPoint x="8" y="649" as="sourcePoint" />
            <mxPoint x="359" y="319" as="targetPoint" />
          </mxGeometry>
        </mxCell>
        <mxCell id="LeOrVeUGs7EtKBDzRHyu-6" value="&lt;b style=&quot;&quot;&gt;&lt;font color=&quot;#3399ff&quot;&gt;Z&lt;/font&gt;&lt;/b&gt;" style="text;strokeColor=none;align=center;fillColor=none;html=1;verticalAlign=middle;whiteSpace=wrap;rounded=0;" vertex="1" parent="1">
          <mxGeometry x="238" y="384.5" width="30" height="30" as="geometry" />
        </mxCell>
        <mxCell id="LeOrVeUGs7EtKBDzRHyu-7" value="&lt;font color=&quot;#00cc00&quot;&gt;&lt;b&gt;X&lt;/b&gt;&lt;/font&gt;" style="text;strokeColor=none;align=center;fillColor=none;html=1;verticalAlign=middle;whiteSpace=wrap;rounded=0;" vertex="1" parent="1">
          <mxGeometry x="332" y="319" width="30" height="30" as="geometry" />
        </mxCell>
        <mxCell id="LeOrVeUGs7EtKBDzRHyu-8" value="" style="endArrow=classic;html=1;rounded=0;exitX=0.8;exitY=0.75;exitDx=0;exitDy=0;exitPerimeter=0;strokeColor=#FFD966;strokeWidth=3;" edge="1" parent="1" source="LeOrVeUGs7EtKBDzRHyu-3">
          <mxGeometry width="50" height="50" relative="1" as="geometry">
            <mxPoint x="89" y="549" as="sourcePoint" />
            <mxPoint x="299" y="229" as="targetPoint" />
          </mxGeometry>
        </mxCell>
        <mxCell id="LeOrVeUGs7EtKBDzRHyu-9" value="" style="endArrow=classic;html=1;rounded=0;exitX=0.9;exitY=0.8;exitDx=0;exitDy=0;exitPerimeter=0;strokeColor=#3399FF;strokeWidth=3;" edge="1" parent="1" source="LeOrVeUGs7EtKBDzRHyu-3">
          <mxGeometry width="50" height="50" relative="1" as="geometry">
            <mxPoint x="89" y="549" as="sourcePoint" />
            <mxPoint x="279" y="259" as="targetPoint" />
          </mxGeometry>
        </mxCell>
        <mxCell id="LeOrVeUGs7EtKBDzRHyu-10" value="" style="endArrow=classic;html=1;rounded=0;strokeColor=#3399FF;strokeWidth=3;" edge="1" parent="1">
          <mxGeometry width="50" height="50" relative="1" as="geometry">
            <mxPoint x="239" y="319" as="sourcePoint" />
            <mxPoint x="319" y="319" as="targetPoint" />
          </mxGeometry>
        </mxCell>
        <mxCell id="LeOrVeUGs7EtKBDzRHyu-11" value="" style="shape=waypoint;sketch=0;fillStyle=solid;size=6;pointerEvents=1;points=[];fillColor=none;resizable=0;rotatable=0;perimeter=centerPerimeter;snapToPoint=1;strokeWidth=3;strokeColor=#FF3333;" vertex="1" parent="1">
          <mxGeometry x="203" y="349" width="20" height="20" as="geometry" />
        </mxCell>
        <mxCell id="LeOrVeUGs7EtKBDzRHyu-12" value="" style="shape=waypoint;sketch=0;fillStyle=solid;size=6;pointerEvents=1;points=[];fillColor=none;resizable=0;rotatable=0;perimeter=centerPerimeter;snapToPoint=1;strokeWidth=5;strokeColor=#FF3333;" vertex="1" parent="1">
          <mxGeometry x="203" y="429" width="20" height="20" as="geometry" />
        </mxCell>
        <mxCell id="LeOrVeUGs7EtKBDzRHyu-13" value="" style="endArrow=none;html=1;rounded=0;entryX=0.95;entryY=0.9;entryDx=0;entryDy=0;entryPerimeter=0;strokeColor=#999999;strokeWidth=5;" edge="1" parent="1" source="LeOrVeUGs7EtKBDzRHyu-11" target="LeOrVeUGs7EtKBDzRHyu-3">
          <mxGeometry width="50" height="50" relative="1" as="geometry">
            <mxPoint x="209" y="359" as="sourcePoint" />
            <mxPoint x="139" y="499" as="targetPoint" />
          </mxGeometry>
        </mxCell>
        <mxCell id="LeOrVeUGs7EtKBDzRHyu-14" value="" style="endArrow=none;html=1;rounded=0;strokeColor=#999999;strokeWidth=5;" edge="1" parent="1" source="LeOrVeUGs7EtKBDzRHyu-12">
          <mxGeometry width="50" height="50" relative="1" as="geometry">
            <mxPoint x="229" y="479" as="sourcePoint" />
            <mxPoint x="213" y="359" as="targetPoint" />
          </mxGeometry>
        </mxCell>
        <mxCell id="LeOrVeUGs7EtKBDzRHyu-15" value="&lt;b style=&quot;&quot;&gt;&lt;font color=&quot;#3399ff&quot;&gt;Z4&lt;/font&gt;&lt;/b&gt;" style="text;strokeColor=none;align=center;fillColor=none;html=1;verticalAlign=middle;whiteSpace=wrap;rounded=0;" vertex="1" parent="1">
          <mxGeometry x="249" y="239" width="30" height="30" as="geometry" />
        </mxCell>
        <mxCell id="LeOrVeUGs7EtKBDzRHyu-16" value="&lt;b style=&quot;&quot;&gt;&lt;font color=&quot;#3399ff&quot;&gt;Z5&lt;/font&gt;&lt;/b&gt;" style="text;strokeColor=none;align=center;fillColor=none;html=1;verticalAlign=middle;whiteSpace=wrap;rounded=0;" vertex="1" parent="1">
          <mxGeometry x="299" y="289" width="30" height="30" as="geometry" />
        </mxCell>
        <mxCell id="LeOrVeUGs7EtKBDzRHyu-17" value="" style="endArrow=classic;html=1;rounded=0;strokeColor=#3399FF;strokeWidth=3;exitX=0.75;exitY=0.85;exitDx=0;exitDy=0;exitPerimeter=0;" edge="1" parent="1" source="LeOrVeUGs7EtKBDzRHyu-12">
          <mxGeometry width="50" height="50" relative="1" as="geometry">
            <mxPoint x="89" y="808" as="sourcePoint" />
            <mxPoint x="213" y="519" as="targetPoint" />
          </mxGeometry>
        </mxCell>
        <mxCell id="LeOrVeUGs7EtKBDzRHyu-18" value="&lt;b style=&quot;&quot;&gt;&lt;font color=&quot;#3399ff&quot;&gt;Z6&lt;/font&gt;&lt;/b&gt;" style="text;strokeColor=none;align=center;fillColor=none;html=1;verticalAlign=middle;whiteSpace=wrap;rounded=0;" vertex="1" parent="1">
          <mxGeometry x="211" y="491" width="31" height="30" as="geometry" />
        </mxCell>
        <mxCell id="LeOrVeUGs7EtKBDzRHyu-19" value="&lt;font color=&quot;#ffd966&quot;&gt;&lt;b&gt;Y&lt;/b&gt;&lt;/font&gt;" style="text;strokeColor=none;align=center;fillColor=none;html=1;verticalAlign=middle;whiteSpace=wrap;rounded=0;" vertex="1" parent="1">
          <mxGeometry x="289" y="209" width="30" height="30" as="geometry" />
        </mxCell>
        <mxCell id="LeOrVeUGs7EtKBDzRHyu-20" value="" style="endArrow=classic;html=1;rounded=0;strokeWidth=3;strokeColor=#00CC00;" edge="1" parent="1">
          <mxGeometry width="50" height="50" relative="1" as="geometry">
            <mxPoint x="239" y="319" as="sourcePoint" />
            <mxPoint x="240" y="260" as="targetPoint" />
          </mxGeometry>
        </mxCell>
        <mxCell id="LeOrVeUGs7EtKBDzRHyu-21" value="&lt;b style=&quot;&quot;&gt;&lt;font color=&quot;#00cc00&quot;&gt;X4&lt;/font&gt;&lt;/b&gt;" style="text;strokeColor=none;align=center;fillColor=none;html=1;verticalAlign=middle;whiteSpace=wrap;rounded=0;" vertex="1" parent="1">
          <mxGeometry x="211" y="250" width="30" height="30" as="geometry" />
        </mxCell>
        <mxCell id="LeOrVeUGs7EtKBDzRHyu-22" value="" style="endArrow=classic;html=1;rounded=0;strokeWidth=3;strokeColor=#00CC00;" edge="1" parent="1">
          <mxGeometry width="50" height="50" relative="1" as="geometry">
            <mxPoint x="239" y="319" as="sourcePoint" />
            <mxPoint x="219" y="349" as="targetPoint" />
          </mxGeometry>
        </mxCell>
        <mxCell id="LeOrVeUGs7EtKBDzRHyu-23" value="&lt;font color=&quot;#00cc00&quot;&gt;&lt;b&gt;X5&lt;/b&gt;&lt;/font&gt;" style="text;strokeColor=none;align=center;fillColor=none;html=1;verticalAlign=middle;whiteSpace=wrap;rounded=0;" vertex="1" parent="1">
          <mxGeometry x="242" y="319" width="30" height="30" as="geometry" />
        </mxCell>
        <mxCell id="LeOrVeUGs7EtKBDzRHyu-24" value="" style="endArrow=classic;html=1;rounded=0;strokeColor=#00CC00;strokeWidth=3;" edge="1" parent="1" source="LeOrVeUGs7EtKBDzRHyu-12">
          <mxGeometry width="50" height="50" relative="1" as="geometry">
            <mxPoint x="289" y="379" as="sourcePoint" />
            <mxPoint x="279" y="439" as="targetPoint" />
          </mxGeometry>
        </mxCell>
        <mxCell id="LeOrVeUGs7EtKBDzRHyu-25" value="&lt;b style=&quot;&quot;&gt;&lt;font color=&quot;#00cc00&quot;&gt;X6&lt;/font&gt;&lt;/b&gt;" style="text;strokeColor=none;align=center;fillColor=none;html=1;verticalAlign=middle;whiteSpace=wrap;rounded=0;" vertex="1" parent="1">
          <mxGeometry x="249" y="409" width="30" height="30" as="geometry" />
        </mxCell>
        <mxCell id="LeOrVeUGs7EtKBDzRHyu-26" value="" style="shape=crossbar;whiteSpace=wrap;html=1;rounded=1;strokeWidth=3;strokeColor=#FF9933;rotation=304;" vertex="1" parent="1">
          <mxGeometry x="183" y="315" width="50" height="20" as="geometry" />
        </mxCell>
        <mxCell id="LeOrVeUGs7EtKBDzRHyu-27" value="&lt;b style=&quot;&quot;&gt;&lt;font&gt;a6&lt;/font&gt;&lt;/b&gt;" style="text;strokeColor=none;align=center;fillColor=none;html=1;verticalAlign=middle;whiteSpace=wrap;rounded=0;fontColor=#FF9933;" vertex="1" parent="1">
          <mxGeometry x="183" y="304" width="28" height="30" as="geometry" />
        </mxCell>
      </root>
    </mxGraphModel>
  </diagram>
</mxfile>
